<svg id="Слой_1" data-name="Слой 1" xmlns="http://www.w3.org/2000/svg" viewBox="0 0 61 52.68"><title>exit_ico</title><path d="M1047.74,111.34a2.49,2.49,0,0,0-1.3-1.74,7.94,7.94,0,0,0-3.63-1.08,8.47,8.47,0,0,0-3.88.89,3.22,3.22,0,0,0-1.46,1.45,2.46,2.46,0,0,0-.16.48,3.27,3.27,0,0,0,.16.47,3.17,3.17,0,0,0,1.46,1.45,8.34,8.34,0,0,0,3.88.89,7.82,7.82,0,0,0,3.63-1.07A2.52,2.52,0,0,0,1047.74,111.34Zm-6.29,36V139.4h14.72V128.88h-14.72v-8.15h-.09L1025.58,134l15.78,13.29ZM1073,107.84V152s-.62,2.79-4.37,3.23c-6.06.73-16.15.53-26.53.47-9.44-.05-18.61.06-24.58-.55-4.72-.48-5.52-3.15-5.52-3.15V107.84h61Z" transform="translate(-1012 -103.11)"/><path d="M1052.81,107.84h-21a9.72,9.72,0,0,1,5-3.82,17,17,0,0,1,5.6-.91,20.47,20.47,0,0,1,7.49,1.48C1052.74,105.81,1052.81,107.84,1052.81,107.84Z" transform="translate(-1012 -103.11)"/></svg>