<svg id="Слой_1" data-name="Слой 1" xmlns="http://www.w3.org/2000/svg" viewBox="0 0 70 34.03"><defs><style>.cls-1{fill:#b4b4b4;}</style></defs><title>eye_ico_off</title><path class="cls-1" d="M721.1,129a12.1,12.1,0,0,0-2.46-5.31,14.19,14.19,0,0,0-3.49-3.09,12.71,12.71,0,0,0-1.5-.85,21.66,21.66,0,0,0-4.42-1.57l-.31-.07a17.57,17.57,0,0,0-10.11.77,13.88,13.88,0,0,0-2.67,1.34,17.54,17.54,0,0,0-2.12,1.6,16.61,16.61,0,0,0-3.31,4.26,7.61,7.61,0,0,0-.93,3.2,10.15,10.15,0,0,0,.89,3.68,12.19,12.19,0,0,0,1.51,2.52l.13.14a17.33,17.33,0,0,0,4,3.43,14.18,14.18,0,0,0,2.71,1.31,18.39,18.39,0,0,0,6.59,1.08,18.07,18.07,0,0,0,3.65-.47l.31-.08a21.88,21.88,0,0,0,4.47-1.66,17.05,17.05,0,0,0,1.51-.88,15,15,0,0,0,3.49-3.22A10.7,10.7,0,0,0,721.1,129Zm18.9.1a34.1,34.1,0,0,1-9.89,10c-6.45,4.2-15.41,8.09-24.5,8-8.75-.09-17.87-3.32-24.72-7.23A28.51,28.51,0,0,1,670,129.07a53.35,53.35,0,0,1,16.15-11.41A48.59,48.59,0,0,1,706.34,113c7.26.09,14.56,2.64,20.49,5.74A43.73,43.73,0,0,1,740,129.07Z" transform="translate(-670 -113.03)"/><path class="cls-1" d="M713,128.77a5.27,5.27,0,0,1-1,3,8,8,0,0,1-1.71,1.58q-.36.23-.75.42a10.65,10.65,0,0,1-2.19.83l-.16,0a9.86,9.86,0,0,1-1.79.23,8.7,8.7,0,0,1-3.23-.54,6.64,6.64,0,0,1-1.34-.64,8.67,8.67,0,0,1-2-1.68l-.06-.07a5.89,5.89,0,0,1-.74-1.24,4.82,4.82,0,0,1-.44-1.8,3.71,3.71,0,0,1,.45-1.58,8.52,8.52,0,0,1,1.63-2.09,8.72,8.72,0,0,1,1-.79,7,7,0,0,1,1.31-.66,9.19,9.19,0,0,1,3.18-.58,9.62,9.62,0,0,1,1.78.21l.15,0a9.61,9.61,0,0,1,2.17.76,6.47,6.47,0,0,1,.74.41,7.65,7.65,0,0,1,1.72,1.53A6,6,0,0,1,713,128.77Z" transform="translate(-670 -113.03)"/></svg>