<?xml version="1.0" encoding="utf-8"?>
<!-- Generator: Adobe Illustrator 22.1.0, SVG Export Plug-In . SVG Version: 6.00 Build 0)  -->
<svg version="1.1" id="Слой_1" xmlns="http://www.w3.org/2000/svg" xmlns:xlink="http://www.w3.org/1999/xlink" x="0px" y="0px"
	 viewBox="0 0 70 34" style="enable-background:new 0 0 70 34;" xml:space="preserve">
<style type="text/css">
	.st0{fill:#009CE9;}
</style>
<title>eye_ico_on</title>
<path class="st0" d="M51.1,15.7L51.1,15.7c-0.4-2.7-1.2-5.2-2.5-7.3c-1-1.7-2.2-3.1-3.5-4.3c-0.5-0.4-1-0.8-1.5-1.2
	c-1.4-0.9-2.9-1.7-4.4-2.1l-0.3-0.1c-1.2-0.4-2.4-0.6-3.6-0.6c-2.2,0-4.4,0.5-6.5,1.6c-0.9,0.5-1.8,1.1-2.7,1.8
	C25.4,4.3,24.7,5,24,5.8c-1.3,1.7-2.4,3.7-3.3,5.9c-0.5,1.4-0.9,2.9-0.9,4.4c0.1,1.8,0.4,3.5,0.9,5.1c0.4,1.2,0.9,2.4,1.5,3.5
	l0.1,0.2c1.2,1.8,2.5,3.4,4,4.7c0.9,0.7,1.8,1.3,2.7,1.8c2.1,1,4.3,1.5,6.6,1.5c1.2-0.1,2.5-0.3,3.7-0.7l0.3-0.1
	c1.5-0.5,3-1.3,4.5-2.3c0.5-0.4,1-0.8,1.5-1.2c1.3-1.2,2.5-2.7,3.5-4.4C50.3,21.7,51.1,18.8,51.1,15.7z M70,15.8
	c-2.6,5.5-5.9,10.2-9.9,13.8c-6.5,5.8-15.4,11.1-24.5,11c-8.8-0.1-17.9-4.6-24.7-10C6.4,27.2,2.6,22.1,0,15.8
	C4.6,9.3,10.1,3.9,16.1,0.1C22.5-4,29.4-6.2,36.3-6.3c7.3,0.1,14.6,3.6,20.5,7.9C61.8,5.2,66.3,10,70,15.8z"/>
<path class="st0" d="M43,15.4c0,1.5-0.4,2.9-1,4.1c-0.5,0.8-1.1,1.6-1.7,2.2c-0.2,0.2-0.5,0.4-0.7,0.6c-0.7,0.5-1.4,0.9-2.2,1.1
	h-0.2c-0.6,0.2-1.2,0.3-1.8,0.3c-1.1,0-2.2-0.2-3.2-0.7c-0.5-0.2-0.9-0.5-1.3-0.9c-0.7-0.6-1.4-1.4-2-2.3l-0.1-0.1
	c-0.3-0.5-0.5-1.1-0.7-1.7c-0.3-0.8-0.4-1.6-0.4-2.5c0-0.8,0.2-1.5,0.5-2.2c0.4-1.1,1-2,1.6-2.9c0.3-0.4,0.6-0.8,1-1.1
	c0.4-0.4,0.8-0.7,1.3-0.9c1-0.5,2.1-0.8,3.2-0.8c0.6,0,1.2,0.1,1.8,0.3h0.2c0.7,0.2,1.5,0.6,2.2,1c0.3,0.2,0.5,0.4,0.7,0.6
	c0.6,0.6,1.2,1.3,1.7,2.1C42.4,12.8,42.8,14.1,43,15.4z"/>
</svg>
