<?xml version="1.0" encoding="utf-8"?>
<!-- Generator: Adobe Illustrator 22.1.0, SVG Export Plug-In . SVG Version: 6.00 Build 0)  -->
<svg version="1.1" id="Layer_1" xmlns="http://www.w3.org/2000/svg" xmlns:xlink="http://www.w3.org/1999/xlink" x="0px" y="0px"
	 viewBox="0 0 96 96" style="enable-background:new 0 0 96 96;" xml:space="preserve">
<path d="M52,84V21.7l21.2,21.2c1.6,1.6,4.1,1.6,5.7,0c1.6-1.6,1.6-4.1,0-5.7l-28-28c-1.6-1.6-4.1-1.6-5.7,0l-28,28
	C16.4,38,16,39,16,40c0,1,0.4,2,1.2,2.8c1.6,1.6,4.1,1.6,5.7,0L44,21.7V84c0,2.2,1.8,4,4,4C50.2,88,52,86.2,52,84z"/>
</svg>
