<svg id="Слой_1" data-name="Слой 1" xmlns="http://www.w3.org/2000/svg" viewBox="0 0 218.27 218.27"><defs><style>.cls-1{fill:#f9f;}.cls-2{fill:#686dce;}.cls-3{fill:#ccc;}.cls-4{fill:#d342ff;}.cls-5{fill:#4607af;}</style></defs><title>logo</title><path class="cls-1" d="M378.62,202.88V162c-1-9.49,9.8-20.25,19.29-19.28,9.49-1,20.25,9.79,19.28,19.28v40.92c1,9.49-9.79,20.25-19.28,19.29C388.42,223.13,377.66,212.37,378.62,202.88Z" transform="translate(-319.74 -54)"/><path class="cls-2" d="M397.91,183.6h38.95a20.53,20.53,0,1,0,0-40.92H397.91c-9.49,1-20.25-9.8-19.29-19.29-1-9.49,9.8-20.25,19.29-19.29h37.75a59.11,59.11,0,1,1,0,118.07H397.91c-9.49,1-20.25-9.8-19.29-19.29C377.66,193.39,388.42,182.64,397.91,183.6Z" transform="translate(-319.74 -54)"/><path class="cls-3" d="M538,163.14c.67,25.45-10.88,56.06-32,77.15s-51.7,32.63-77.15,32c-25.45.67-56.07-10.88-77.15-32s-32.64-51.7-32-77.15c-.68-25.45,10.87-56.07,32-77.15s51.7-32.64,77.15-32C454.33,53.35,485,64.9,506,86S538.66,137.69,538,163.14Zm-22.7,0C515.83,143,506.68,118.73,490,102s-41-25.84-61.1-25.3c-20.16-.54-44.41,8.61-61.1,25.3S341.93,143,342.47,163.14c-.54,20.15,8.61,44.4,25.31,61.1s40.94,25.84,61.1,25.31c20.15.53,44.4-8.61,61.1-25.31S515.83,183.29,515.29,163.14Z" transform="translate(-319.74 -54)"/><path class="cls-4" d="M397.91,183.6h19.28v19.28c1,9.49-9.79,20.25-19.28,19.29-9.49,1-20.25-9.8-19.29-19.29C377.66,193.39,388.42,182.64,397.91,183.6Z" transform="translate(-319.74 -54)"/><path class="cls-5" d="M417.19,123.39c1,9.49-9.79,20.25-19.28,19.29-9.49,1-20.25-9.8-19.29-19.29-1-9.49,9.8-20.25,19.29-19.29C407.4,103.14,418.16,113.9,417.19,123.39Z" transform="translate(-319.74 -54)"/></svg>