<svg id="svg8" xmlns="http://www.w3.org/2000/svg" viewBox="0 0 245.23 247.45"><defs><style>.cls-1{fill:#259ee7;}.cls-2,.cls-20,.cls-43{fill-opacity:0;}.cls-2,.cls-43{stroke:#fff;stroke-width:0.19px;}.cls-3{fill:#bea8e3;opacity:0.8;}.cls-10,.cls-11,.cls-12,.cls-13,.cls-14,.cls-15,.cls-16,.cls-17,.cls-18,.cls-19,.cls-21,.cls-22,.cls-23,.cls-24,.cls-25,.cls-26,.cls-27,.cls-28,.cls-29,.cls-3,.cls-30,.cls-31,.cls-32,.cls-33,.cls-34,.cls-35,.cls-36,.cls-37,.cls-38,.cls-39,.cls-4,.cls-40,.cls-41,.cls-42,.cls-5,.cls-8,.cls-9{isolation:isolate;}.cls-4{fill:#a383d7;opacity:0.84;}.cls-5,.cls-6{fill:#4607af;}.cls-5{opacity:0.73;}.cls-7{fill:#b3b3b3;fill-opacity:0.31;}.cls-10,.cls-11,.cls-12,.cls-13,.cls-14,.cls-15,.cls-16,.cls-17,.cls-18,.cls-19,.cls-20,.cls-21,.cls-22,.cls-23,.cls-24,.cls-25,.cls-26,.cls-27,.cls-28,.cls-29,.cls-30,.cls-31,.cls-32,.cls-33,.cls-34,.cls-35,.cls-36,.cls-37,.cls-38,.cls-39,.cls-40,.cls-41,.cls-42,.cls-43,.cls-44,.cls-8,.cls-9{fill:#fff;}.cls-8{opacity:0.23;}.cls-9{opacity:0.2;}.cls-10{opacity:0.34;}.cls-11{opacity:0.38;}.cls-12{opacity:0.59;}.cls-13{opacity:0.29;}.cls-14{opacity:0.42;}.cls-15{opacity:0.35;}.cls-16{opacity:0.4;}.cls-17{opacity:0.25;}.cls-18{opacity:0.39;}.cls-19{opacity:0.49;}.cls-21{opacity:0.17;}.cls-22{opacity:0.45;}.cls-23{opacity:0.36;}.cls-24{opacity:0.16;}.cls-25{opacity:0.52;}.cls-26{opacity:0.61;}.cls-27{opacity:0.52;}.cls-28{opacity:0.25;}.cls-29{opacity:0.22;}.cls-30{opacity:0.3;}.cls-31{opacity:0.22;}.cls-32{opacity:0.19;}.cls-33{opacity:0.41;}.cls-34{opacity:0.66;}.cls-35{opacity:0.71;}.cls-36{opacity:0.44;}.cls-37{opacity:0.28;}.cls-38{opacity:0.37;}.cls-39{opacity:0.66;}.cls-40{opacity:0.82;}.cls-41{opacity:0.58;}.cls-42{opacity:0.56;}</style></defs><title>tooth</title><g id="layer1"><g id="g23061"><path id="path19871" class="cls-1" d="M797.59,375.82l6.72-25.07,10.84-13.15,24.55,6.58,17.77-4.76,16.09,10.37,4.2,24.61L868.59,392H804.33Z" transform="translate(-718.57 -273.89)"/><path id="path19335" class="cls-2" d="M854.36,411.75a1.65,1.65,0,1,0-1.65,1.65A1.66,1.66,0,0,0,854.36,411.75Z" transform="translate(-718.57 -273.89)"/><path id="path19395" class="cls-2" d="M854.36,411.75a1.65,1.65,0,1,0-1.65,1.65A1.66,1.66,0,0,0,854.36,411.75Z" transform="translate(-718.57 -273.89)"/><path id="path19423" class="cls-2" d="M854.36,411.75a1.65,1.65,0,1,0-1.65,1.65A1.66,1.66,0,0,0,854.36,411.75Z" transform="translate(-718.57 -273.89)"/><path id="path19475" class="cls-2" d="M854.36,411.75a1.65,1.65,0,1,0-1.65,1.65A1.66,1.66,0,0,0,854.36,411.75Z" transform="translate(-718.57 -273.89)"/><path id="path19595" class="cls-2" d="M854.36,411.75a1.65,1.65,0,1,0-1.65,1.65A1.66,1.66,0,0,0,854.36,411.75Z" transform="translate(-718.57 -273.89)"/><path id="path19731" class="cls-2" d="M854.36,411.75a1.65,1.65,0,1,0-1.65,1.65A1.66,1.66,0,0,0,854.36,411.75Z" transform="translate(-718.57 -273.89)"/><path id="path19739" class="cls-2" d="M854.36,411.75a1.65,1.65,0,1,0-1.65,1.65A1.66,1.66,0,0,0,854.36,411.75Z" transform="translate(-718.57 -273.89)"/><path id="path19815" class="cls-2" d="M854.36,411.75a1.65,1.65,0,1,0-1.65,1.65A1.66,1.66,0,0,0,854.36,411.75Z" transform="translate(-718.57 -273.89)"/><path id="path19831" class="cls-2" d="M854.36,411.75a1.65,1.65,0,1,0-1.65,1.65A1.66,1.66,0,0,0,854.36,411.75Z" transform="translate(-718.57 -273.89)"/><path id="path19877" class="cls-3" d="M841.14,519.11V478.17a80.65,80.65,0,0,0,38-10.08l20.47,35.45a121.78,121.78,0,0,1-58.44,15.57Z" transform="translate(-718.57 -273.89)"/><path id="path19887" class="cls-4" d="M920.63,398.68h40.94a121.54,121.54,0,0,1-60.15,103.81L881,467a80.56,80.56,0,0,0,39.68-68.36Z" transform="translate(-718.57 -273.89)"/><path id="path19901" class="cls-5" d="M841.14,276.12a121.55,121.55,0,0,1,44.21,8.75,121.51,121.51,0,0,1,67.47,67.47,121.76,121.76,0,0,1,8.75,44.21H920.63a80.59,80.59,0,0,0-5.87-29.14,80.57,80.57,0,0,0-44.48-44.48,80.63,80.63,0,0,0-29.14-5.87Z" transform="translate(-718.57 -273.89)"/><path id="path19911" class="cls-6" d="M858.43,392h10.16l-1.53,12.13,5,20.05.69,29.45-21.19-14.35-11.27-9.84L823.19,444,813,457.56l-2.73-16.29L807.7,422.5l1.42-12.3-1.18-11.1L804.33,392Z" transform="translate(-718.57 -273.89)"/><path id="path19927" class="cls-7" d="M839,276.12v40.94a80.64,80.64,0,0,0-29.34,6,80.52,80.52,0,0,0-44.53,45.15,80.51,80.51,0,0,0-5.57,29.43c-.19,15.65,5.13,33.15,15.25,47.17s25.06,24.56,40,29.3A80.36,80.36,0,0,0,839,478.17v40.94a121.64,121.64,0,0,1-36.83-6.06c-22.56-7.1-45.17-23-60.51-44.17s-23.38-47.61-23.09-71.26a121.41,121.41,0,0,1,8.44-44.5A121.52,121.52,0,0,1,794.54,285,121.7,121.7,0,0,1,839,276.12Z" transform="translate(-718.57 -273.89)"/><path id="path19929" class="cls-8" d="M846.28,371.18l21,4L840,392Z" transform="translate(-718.57 -273.89)"/><path id="path19931" class="cls-9" d="M867.32,375.19l6.24-25.4,4.2,24.61Z" transform="translate(-718.57 -273.89)"/><path id="path19933" class="cls-10" d="M858.43,392l8.63,12.13-14.35,7.61Z" transform="translate(-718.57 -273.89)"/><path id="path19935" class="cls-11" d="M852.71,411.75,872,424.19l-11.68,8.29Z" transform="translate(-718.57 -273.89)"/><path id="path19937" class="cls-12" d="M804.33,392h20.16l-16.55,7.09Z" transform="translate(-718.57 -273.89)"/><path id="path19939" class="cls-13" d="M828.45,413l-19.33-2.8-1.18-11.1Z" transform="translate(-718.57 -273.89)"/><path id="path19941" class="cls-14" d="M819.31,433.11,807.7,422.5l20.75-9.5Z" transform="translate(-718.57 -273.89)"/><path id="path19943" class="cls-15" d="M824.49,392l15.61,12.83L828.45,413Z" transform="translate(-718.57 -273.89)"/><path id="path19945" class="cls-16" d="M823.19,444l-13-2.71,9.08-8.16Z" transform="translate(-718.57 -273.89)"/><path id="path19947" class="cls-17" d="M860.37,432.48l12.36,21.16-21.19-14.35Z" transform="translate(-718.57 -273.89)"/><path id="path19949" class="cls-18" d="M840.1,404.84,840,392h18.41Z" transform="translate(-718.57 -273.89)"/><path id="path19951" class="cls-19" d="M843.25,421.78,828.45,413l24.26-1.25Z" transform="translate(-718.57 -273.89)"/><path id="path19953" class="cls-20" d="M858.43,392H840l27.3-16.82Z" transform="translate(-718.57 -273.89)"/><path id="path19955" class="cls-21" d="M840,392H824.49l8.43-21Z" transform="translate(-718.57 -273.89)"/><path id="path19957" class="cls-22" d="M839.7,344.18,832.92,371l-8.81-17.91Z" transform="translate(-718.57 -273.89)"/><path id="path19959" class="cls-23" d="M877.76,374.4,868.59,392l-1.27-16.82Z" transform="translate(-718.57 -273.89)"/><path id="path19961" class="cls-21" d="M816.3,368.68,824.49,392H804.33Z" transform="translate(-718.57 -273.89)"/><path id="path19965" class="cls-24" d="M823.19,444l-3.88-10.87,21-3.66Z" transform="translate(-718.57 -273.89)"/><path id="path19967" class="cls-25" d="M810.23,441.27l13,2.71L813,457.56Z" transform="translate(-718.57 -273.89)"/><path id="path19969" class="cls-26" d="M809.12,410.2l19.33,2.8-20.75,9.5Z" transform="translate(-718.57 -273.89)"/><path id="path19971" class="cls-27" d="M807.7,422.5l11.61,10.61-9.08,8.16Z" transform="translate(-718.57 -273.89)"/><path id="path19973" class="cls-28" d="M819.31,433.11,828.45,413l14.8,8.78Z" transform="translate(-718.57 -273.89)"/><path id="path19975" class="cls-29" d="M840.1,404.84l12.61,6.91L828.45,413Z" transform="translate(-718.57 -273.89)"/><path id="path19977" class="cls-30" d="M851.54,439.29l-11.27-9.84,3-7.67Z" transform="translate(-718.57 -273.89)"/><path id="path19979" class="cls-31" d="M843.25,421.78l9.46-10,7.66,20.73Z" transform="translate(-718.57 -273.89)"/><path id="path19981" class="cls-32" d="M824.49,392l4,21-20.51-13.9Z" transform="translate(-718.57 -273.89)"/><path id="path19983" class="cls-33" d="M816.3,368.68l-12,23.33-6.74-16.19Z" transform="translate(-718.57 -273.89)"/><path id="path19985" class="cls-34" d="M816.3,368.68l-12-17.93,19.8,2.38Z" transform="translate(-718.57 -273.89)"/><path id="path19987" class="cls-35" d="M824.11,353.13l-9-15.53,24.55,6.58Z" transform="translate(-718.57 -273.89)"/><path id="path19989" class="cls-36" d="M832.92,371l-8.43,21-8.19-23.33Z" transform="translate(-718.57 -273.89)"/><path id="path19991" class="cls-37" d="M859.22,355.48l-12.94,15.7-6.58-27Z" transform="translate(-718.57 -273.89)"/><path id="path19993" class="cls-38" d="M859.22,355.48l-1.75-16.06,16.09,10.37Z" transform="translate(-718.57 -273.89)"/><path id="path19999" class="cls-39" d="M816.3,368.68l-18.71,7.14,6.72-25.07Z" transform="translate(-718.57 -273.89)"/><path id="path20001" class="cls-40" d="M824.11,353.13l-19.8-2.38,10.84-13.15Z" transform="translate(-718.57 -273.89)"/><path id="path20003" class="cls-41" d="M816.3,368.68l7.81-15.55L832.92,371Z" transform="translate(-718.57 -273.89)"/><path id="path20005" class="cls-42" d="M832.92,371l6.78-26.86,6.58,27Z" transform="translate(-718.57 -273.89)"/><path id="path20379" class="cls-2" d="M814.76,369.27l-15.63,6" transform="translate(-718.57 -273.89)"/><path id="path20381" class="cls-2" d="M877,375.87l-7.64,14.68" transform="translate(-718.57 -273.89)"/><path id="path20383" class="cls-2" d="M858.17,356.76,847.33,369.9" transform="translate(-718.57 -273.89)"/><path id="path20385" class="cls-2" d="M827.77,414.5,820,431.61" transform="translate(-718.57 -273.89)"/><path id="path20389" class="cls-2" d="M838.27,345l-12.73,7.3" transform="translate(-718.57 -273.89)"/><path id="path20391" class="cls-2" d="M823.37,354.6,817,367.2" transform="translate(-718.57 -273.89)"/><path id="path20393" class="cls-2" d="M844.63,371.16l-10.06-.1" transform="translate(-718.57 -273.89)"/><path id="path20395" class="cls-2" d="M841.3,343.76l14.58-3.91" transform="translate(-718.57 -273.89)"/><path id="path20397" class="cls-2" d="M832.19,369.56l-7.35-14.95" transform="translate(-718.57 -273.89)"/><path id="path20399" class="cls-2" d="M840.49,390.43l5.31-17.67" transform="translate(-718.57 -273.89)"/><path id="path20401" class="cls-2" d="M845.89,369.57l-5.8-23.78" transform="translate(-718.57 -273.89)"/><path id="path20403" class="cls-2" d="M811.85,441.6l9.73,2" transform="translate(-718.57 -273.89)"/><path id="path20405" class="cls-2" d="M820.94,432.83l17.7-3.1" transform="translate(-718.57 -273.89)"/><path id="path20407" class="cls-2" d="M805.08,393.48l2.11,4.15" transform="translate(-718.57 -273.89)"/><path id="path20409" class="cls-2" d="M860.75,354.87,872,350.4" transform="translate(-718.57 -273.89)"/><path id="path20411" class="cls-2" d="M873.84,351.42l3.65,21.35" transform="translate(-718.57 -273.89)"/><path id="path20413" class="cls-2" d="M859.39,393.36l6.71,9.44" transform="translate(-718.57 -273.89)"/><path id="path20417" class="cls-2" d="M806,392h16.86" transform="translate(-718.57 -273.89)"/><path id="path20419" class="cls-2" d="M816.74,338l21.37,5.73" transform="translate(-718.57 -273.89)"/><path id="path20421" class="cls-2" d="M870.69,425.14l-9,6.39" transform="translate(-718.57 -273.89)"/><path id="path20423" class="cls-2" d="M872.69,452l-.61-26.15" transform="translate(-718.57 -273.89)"/><path id="path20425" class="cls-2" d="M826.14,392h12.22" transform="translate(-718.57 -273.89)"/><path id="path20427" class="cls-2" d="M857.65,341.06,859,353.84" transform="translate(-718.57 -273.89)"/><path id="path20429" class="cls-2" d="M822.84,392H806" transform="translate(-718.57 -273.89)"/><path id="path20431" class="cls-2" d="M844.65,422.65l14.31,9" transform="translate(-718.57 -273.89)"/><path id="path20433" class="cls-2" d="M865.91,376.06l-24.49,15.09" transform="translate(-718.57 -273.89)"/><path id="path20435" class="cls-2" d="M828.15,411.38l-3.35-17.74" transform="translate(-718.57 -273.89)"/><path id="path20437" class="cls-2" d="M866.94,392h-6.86" transform="translate(-718.57 -273.89)"/><path id="path20439" class="cls-2" d="M850.84,437.8,844,423.27" transform="translate(-718.57 -273.89)"/><path id="path20441" class="cls-2" d="M858.86,340.32l13.31,8.57" transform="translate(-718.57 -273.89)"/><path id="path20443" class="cls-2" d="M865.6,404.92,854.17,411" transform="translate(-718.57 -273.89)"/><path id="path20445" class="cls-2" d="M807.92,424.14,810,439.63" transform="translate(-718.57 -273.89)"/><path id="path20447" class="cls-2" d="M816,339l7.31,12.67" transform="translate(-718.57 -273.89)"/><path id="path20449" class="cls-2" d="M798.22,377.34l5.47,13.15" transform="translate(-718.57 -273.89)"/><path id="path20451" class="cls-2" d="M841.76,422.49l-21,9.91" transform="translate(-718.57 -273.89)"/><path id="path20453" class="cls-2" d="M842.65,423.32l-1.78,4.59" transform="translate(-718.57 -273.89)"/><path id="path20455" class="cls-2" d="M867.44,376.84l1,13.53" transform="translate(-718.57 -273.89)"/><path id="path20457" class="cls-2" d="M810.5,442.89l2.19,13" transform="translate(-718.57 -273.89)"/><path id="path20459" class="cls-2" d="M851.06,411.83l-21,1.09" transform="translate(-718.57 -273.89)"/><path id="path20461" class="cls-2" d="M814,456.24l8.25-10.94" transform="translate(-718.57 -273.89)"/><path id="path20463" class="cls-2" d="M823.94,390.45l-7.09-20.21" transform="translate(-718.57 -273.89)"/><path id="path20465" class="cls-2" d="M865.6,404.92,854.17,411" transform="translate(-718.57 -273.89)"/><path id="path20467" class="cls-2" d="M827.08,412.07l-17.77-12" transform="translate(-718.57 -273.89)"/><path id="path20471" class="cls-2" d="M829.87,413.84l12,7.1" transform="translate(-718.57 -273.89)"/><path id="path20473" class="cls-2" d="M861.2,433.91l10.7,18.3" transform="translate(-718.57 -273.89)"/><path id="path20475" class="cls-2" d="M808.93,411.84l-1,9" transform="translate(-718.57 -273.89)"/><path id="path20477" class="cls-2" d="M857.08,393l-15.63,10.93" transform="translate(-718.57 -273.89)"/><path id="path20479" class="cls-2" d="M854.1,412.64l16.55,10.65" transform="translate(-718.57 -273.89)"/><path id="path20481" class="cls-2" d="M839,430.52l-14.56,12.39" transform="translate(-718.57 -273.89)"/><path id="path20483" class="cls-2" d="M856.78,392H841.67" transform="translate(-718.57 -273.89)"/><path id="path20485" class="cls-2" d="M838.75,405.79l-9,6.26" transform="translate(-718.57 -273.89)"/><path id="path20487" class="cls-2" d="M866.55,376.65l-7.35,13.9" transform="translate(-718.57 -273.89)"/><path id="path20489" class="cls-2" d="M825.11,390.48l7.19-17.91" transform="translate(-718.57 -273.89)"/><path id="path20491" class="cls-2" d="M798,374.22l5.86-21.88" transform="translate(-718.57 -273.89)"/><path id="path20493" class="cls-2" d="M833.45,372.6l6,17.85" transform="translate(-718.57 -273.89)"/><path id="path20495" class="cls-2" d="M859.84,357l6.85,16.66" transform="translate(-718.57 -273.89)"/><path id="path20497" class="cls-2" d="M832.19,369.56l-7.35-14.95" transform="translate(-718.57 -273.89)"/><path id="path20499" class="cls-2" d="M839.3,345.78l-6,23.66" transform="translate(-718.57 -273.89)"/><path id="path20501" class="cls-2" d="M871.64,422.58l-4.18-16.83" transform="translate(-718.57 -273.89)"/><path id="path20503" class="cls-2" d="M838.36,392H826.14" transform="translate(-718.57 -273.89)"/><path id="path20505" class="cls-2" d="M824.45,442.91,839,430.52" transform="translate(-718.57 -273.89)"/><path id="path20507" class="cls-2" d="M876.12,374.53l-7.16.54" transform="translate(-718.57 -273.89)"/><path id="path20509" class="cls-2" d="M853.17,410.16,858,393.6" transform="translate(-718.57 -273.89)"/><path id="path20511" class="cls-2" d="M825.77,393.06l13.05,10.73" transform="translate(-718.57 -273.89)"/><path id="path20513" class="cls-2" d="M809.46,398.45,823,392.66" transform="translate(-718.57 -273.89)"/><path id="path20515" class="cls-2" d="M841.51,430.54l8.79,7.67" transform="translate(-718.57 -273.89)"/><path id="path20517" class="cls-2" d="M872.69,452l-.61-26.15" transform="translate(-718.57 -273.89)"/><path id="path20519" class="cls-2" d="M852.91,440.22l18.45,12.49" transform="translate(-718.57 -273.89)"/><path id="path20521" class="cls-2" d="M822.64,442.43l-2.77-7.76" transform="translate(-718.57 -273.89)"/><path id="path20523" class="cls-2" d="M808.11,400.75l.83,7.81" transform="translate(-718.57 -273.89)"/><path id="path20525" class="cls-2" d="M803.88,352.34,798,374.22" transform="translate(-718.57 -273.89)"/><path id="path20527" class="cls-2" d="M859.06,433.49l-6.21,4.79" transform="translate(-718.57 -273.89)"/><path id="path20529" class="cls-2" d="M865.69,374.88l-17.79-3.39" transform="translate(-718.57 -273.89)"/><path id="path20531" class="cls-2" d="M822.47,352.93l-16.52-2" transform="translate(-718.57 -273.89)"/><path id="path20533" class="cls-2" d="M818.08,434.21l-6.62,6" transform="translate(-718.57 -273.89)"/><path id="path20535" class="cls-2" d="M805.36,349.47l8.74-10.59" transform="translate(-718.57 -273.89)"/><path id="path20537" class="cls-2" d="M817.94,368.91l13.34,1.9" transform="translate(-718.57 -273.89)"/><g id="g22113"><path id="path19107" class="cls-43" d="M922.76,397.62a2.13,2.13,0,1,0-2.12,2.12A2.16,2.16,0,0,0,922.76,397.62Z" transform="translate(-718.57 -273.89)"/><path id="path19109" class="cls-44" d="M918.51,397.62l.16-.82.46-.69.69-.46.82-.16.81.16.69.46.46.69.16.82-.16.81-.46.69-.69.46-.81.16-.82-.16-.69-.46-.46-.69Z" transform="translate(-718.57 -273.89)"/><path id="path19111" class="cls-43" d="M963.7,397.62a2.13,2.13,0,1,0-4.25,0,2.13,2.13,0,0,0,4.25,0Z" transform="translate(-718.57 -273.89)"/><path id="path19113" class="cls-44" d="M959.45,397.62l.16-.82.46-.69.69-.46.81-.16.81.16.69.46.46.69.17.82-.17.81-.46.69-.69.46-.81.16-.81-.16-.69-.46-.46-.69Z" transform="translate(-718.57 -273.89)"/><path id="path19219" class="cls-43" d="M882.16,467.57a2.13,2.13,0,1,0-4.25,0,2.13,2.13,0,0,0,4.25,0Z" transform="translate(-718.57 -273.89)"/><path id="path19221" class="cls-44" d="M877.91,467.57l.16-.81.46-.69.69-.46.81-.17.82.17.69.46.46.69.16.81-.16.81-.46.69-.69.46-.82.16-.81-.16-.69-.46-.46-.69Z" transform="translate(-718.57 -273.89)"/><path id="path19223" class="cls-43" d="M902.63,503a2.13,2.13,0,1,0-2.13,2.13A2.15,2.15,0,0,0,902.63,503Z" transform="translate(-718.57 -273.89)"/><path id="path19225" class="cls-44" d="M898.38,503l.16-.81.46-.69.69-.46.81-.16.81.16.69.46.46.69.17.81-.17.81-.46.69-.69.46-.81.17-.81-.17-.69-.46-.46-.69Z" transform="translate(-718.57 -273.89)"/><path id="path19435" class="cls-43" d="M842.2,478.18a2.13,2.13,0,1,0-2.13,2.12A2.16,2.16,0,0,0,842.2,478.18Z" transform="translate(-718.57 -273.89)"/><path id="path19437" class="cls-44" d="M838,478.18l.16-.81.46-.69.69-.46.81-.17.82.17.69.46.46.69.16.81L842,479l-.46.69-.69.46-.82.16-.81-.16-.69-.46-.46-.69Z" transform="translate(-718.57 -273.89)"/><path id="path19439" class="cls-43" d="M842.2,519.11a2.13,2.13,0,1,0-2.13,2.13A2.16,2.16,0,0,0,842.2,519.11Z" transform="translate(-718.57 -273.89)"/><path id="path19441" class="cls-44" d="M838,519.11l.16-.81.46-.69.69-.46.81-.16.82.16.69.46.46.69.16.81-.16.82-.46.69-.69.46-.82.16-.81-.16-.69-.46-.46-.69Z" transform="translate(-718.57 -273.89)"/><path id="path19715" class="cls-43" d="M842.2,317.05a2.13,2.13,0,1,0-2.13,2.13A2.16,2.16,0,0,0,842.2,317.05Z" transform="translate(-718.57 -273.89)"/><path id="path19717" class="cls-44" d="M838,317.05l.16-.81.46-.69.69-.46.81-.16.82.16.69.46.46.69.16.81-.16.82-.46.69-.69.46-.82.16-.81-.16-.69-.46-.46-.69Z" transform="translate(-718.57 -273.89)"/><path id="path19719" class="cls-43" d="M842.2,276.12a2.13,2.13,0,1,0-2.13,2.12A2.16,2.16,0,0,0,842.2,276.12Z" transform="translate(-718.57 -273.89)"/><path id="path19721" class="cls-44" d="M838,276.12l.16-.81.46-.69.69-.46.81-.17.82.17.69.46.46.69.16.81-.16.81-.46.69-.69.46-.82.16-.81-.16-.69-.46-.46-.69Z" transform="translate(-718.57 -273.89)"/><path id="path20387" class="cls-43" d="M922.76,397.62h36.69" transform="translate(-718.57 -273.89)"/><path id="path20415" class="cls-43" d="M881.1,469.41l18.34,31.77" transform="translate(-718.57 -273.89)"/><path id="path20469" class="cls-43" d="M840.07,480.3V517" transform="translate(-718.57 -273.89)"/><path id="path20539" class="cls-43" d="M840.07,314.93V278.24" transform="translate(-718.57 -273.89)"/></g><path id="path20541" class="cls-2" d="M840,393.66l.06,9.53" transform="translate(-718.57 -273.89)"/><path id="path20543" class="cls-2" d="M851.06,411.83l-21,1.09" transform="translate(-718.57 -273.89)"/><path id="path20545" class="cls-2" d="M851.58,413l-7.19,7.63" transform="translate(-718.57 -273.89)"/><path id="path20547" class="cls-2" d="M868.39,393.65l-1.12,8.86" transform="translate(-718.57 -273.89)"/><path id="path20549" class="cls-2" d="M841.13,345l16.66,9.65" transform="translate(-718.57 -273.89)"/><path id="path20551" class="cls-2" d="M873.17,351.39l-5.46,22.2" transform="translate(-718.57 -273.89)"/><path id="path20553" class="cls-2" d="M810.75,410.44l16.07,2.32" transform="translate(-718.57 -273.89)"/><path id="path20555" class="cls-2" d="M870.69,425.14l-9,6.39" transform="translate(-718.57 -273.89)"/><path id="path20557" class="cls-2" d="M833.32,369.44l6-23.66" transform="translate(-718.57 -273.89)"/><path id="path20559" class="cls-2" d="M838.64,429.73l-17.7,3.1" transform="translate(-718.57 -273.89)"/><path id="path20561" class="cls-2" d="M818.09,432l-9.17-8.39" transform="translate(-718.57 -273.89)"/><path id="path20563" class="cls-2" d="M859.79,430.93l-6.51-17.63" transform="translate(-718.57 -273.89)"/><path id="path20565" class="cls-2" d="M809.2,421.81,827,413.69" transform="translate(-718.57 -273.89)"/><path id="path20567" class="cls-2" d="M841.55,405.63l9.71,5.33" transform="translate(-718.57 -273.89)"/><path id="path20569" class="cls-2" d="M805.22,352.12l10.16,15.18" transform="translate(-718.57 -273.89)"/><path id="path20571" class="cls-2" d="M815.55,370.15l-10.47,20.39" transform="translate(-718.57 -273.89)"/><g id="g22478"><path id="path19075" class="cls-43" d="M818,368.68a1.65,1.65,0,1,0-1.65,1.65A1.66,1.66,0,0,0,818,368.68Z" transform="translate(-718.57 -273.89)"/><path id="path19077" class="cls-44" d="M814.65,368.68l.12-.63.36-.54.54-.36.63-.12.63.12.54.36.36.54.12.63-.12.63-.36.54-.54.35-.63.13-.63-.13-.54-.35-.36-.54Z" transform="translate(-718.57 -273.89)"/><path id="path19079" class="cls-43" d="M799.24,375.82a1.65,1.65,0,1,0-1.65,1.65A1.68,1.68,0,0,0,799.24,375.82Z" transform="translate(-718.57 -273.89)"/><path id="path19081" class="cls-44" d="M795.94,375.82l.12-.64.36-.53.54-.36.63-.12.63.12.54.36.36.53.12.64-.12.63-.36.53-.54.36-.63.13-.63-.13-.54-.36-.36-.53Z" transform="translate(-718.57 -273.89)"/><path id="path19083" class="cls-43" d="M879.42,374.4a1.66,1.66,0,1,0-1.66,1.65A1.68,1.68,0,0,0,879.42,374.4Z" transform="translate(-718.57 -273.89)"/><path id="path19085" class="cls-44" d="M876.11,374.4l.13-.63.36-.54.53-.35.63-.13.64.13.53.35.36.54.13.63-.13.63-.36.54-.53.36-.64.12-.63-.12-.53-.36-.36-.54Z" transform="translate(-718.57 -273.89)"/><path id="path19087" class="cls-43" d="M870.24,392a1.65,1.65,0,1,0-1.65,1.65A1.67,1.67,0,0,0,870.24,392Z" transform="translate(-718.57 -273.89)"/><path id="path19089" class="cls-44" d="M866.94,392l.13-.63.35-.54.54-.35.63-.13.63.13.54.35.36.54.12.63-.12.63-.36.54-.54.36-.63.12-.63-.12-.54-.36-.35-.54Z" transform="translate(-718.57 -273.89)"/><path id="path19091" class="cls-43" d="M860.87,355.48a1.66,1.66,0,1,0-1.65,1.66A1.68,1.68,0,0,0,860.87,355.48Z" transform="translate(-718.57 -273.89)"/><path id="path19093" class="cls-44" d="M857.56,355.48l.13-.63.36-.53.53-.36.64-.13.63.13.53.36.36.53.13.63-.13.64-.36.53-.53.36-.63.13-.64-.13-.53-.36-.36-.53Z" transform="translate(-718.57 -273.89)"/><path id="path19095" class="cls-43" d="M847.93,371.18a1.65,1.65,0,1,0-1.65,1.65A1.66,1.66,0,0,0,847.93,371.18Z" transform="translate(-718.57 -273.89)"/><path id="path19097" class="cls-44" d="M844.63,371.18l.12-.64.36-.53.54-.36.63-.13.63.13.54.36.35.53.13.64-.13.63-.35.53-.54.36-.63.13-.63-.13-.54-.36-.36-.53Z" transform="translate(-718.57 -273.89)"/><path id="path19099" class="cls-43" d="M830.1,413a1.65,1.65,0,1,0-1.65,1.65A1.67,1.67,0,0,0,830.1,413Z" transform="translate(-718.57 -273.89)"/><path id="path19101" class="cls-44" d="M826.8,413l.13-.63.35-.54.54-.35.63-.13.63.13.54.35.36.54.12.63-.12.63-.36.54-.54.36-.63.12-.63-.12-.54-.36-.35-.54Z" transform="translate(-718.57 -273.89)"/><path id="path19103" class="cls-43" d="M821,433.11a1.65,1.65,0,1,0-1.65,1.65A1.66,1.66,0,0,0,821,433.11Z" transform="translate(-718.57 -273.89)"/><path id="path19105" class="cls-44" d="M817.66,433.11l.13-.63.36-.54.53-.35.63-.13.64.13.53.35.36.54.13.63-.13.63-.36.54-.53.36-.64.12-.63-.12-.53-.36-.36-.54Z" transform="translate(-718.57 -273.89)"/><path id="path19115" class="cls-43" d="M841.35,344.18a1.65,1.65,0,1,0-1.65,1.66A1.67,1.67,0,0,0,841.35,344.18Z" transform="translate(-718.57 -273.89)"/><path id="path19117" class="cls-44" d="M838.05,344.18l.13-.63.35-.53.54-.36.63-.13.63.13.54.36.36.53.12.63-.12.64-.36.53-.54.36-.63.12-.63-.12-.54-.36-.35-.53Z" transform="translate(-718.57 -273.89)"/><path id="path19119" class="cls-43" d="M825.76,353.13a1.65,1.65,0,1,0-1.65,1.65A1.67,1.67,0,0,0,825.76,353.13Z" transform="translate(-718.57 -273.89)"/><path id="path19121" class="cls-44" d="M822.46,353.13l.12-.63.36-.54.54-.36.63-.12.63.12.54.36.36.54.12.63-.12.63-.36.54-.54.35-.63.13-.63-.13-.54-.35-.36-.54Z" transform="translate(-718.57 -273.89)"/><path id="path19123" class="cls-43" d="M825.76,353.13a1.65,1.65,0,1,0-1.65,1.65A1.67,1.67,0,0,0,825.76,353.13Z" transform="translate(-718.57 -273.89)"/><path id="path19125" class="cls-44" d="M822.46,353.13l.12-.63.36-.54.54-.36.63-.12.63.12.54.36.36.54.12.63-.12.63-.36.54-.54.35-.63.13-.63-.13-.54-.35-.36-.54Z" transform="translate(-718.57 -273.89)"/><path id="path19127" class="cls-43" d="M818,368.68a1.65,1.65,0,1,0-1.65,1.65A1.66,1.66,0,0,0,818,368.68Z" transform="translate(-718.57 -273.89)"/><path id="path19129" class="cls-44" d="M814.65,368.68l.12-.63.36-.54.54-.36.63-.12.63.12.54.36.36.54.12.63-.12.63-.36.54-.54.35-.63.13-.63-.13-.54-.35-.36-.54Z" transform="translate(-718.57 -273.89)"/><path id="path19131" class="cls-43" d="M847.93,371.18a1.65,1.65,0,1,0-1.65,1.65A1.66,1.66,0,0,0,847.93,371.18Z" transform="translate(-718.57 -273.89)"/><path id="path19133" class="cls-44" d="M844.63,371.18l.12-.64.36-.53.54-.36.63-.13.63.13.54.36.35.53.13.64-.13.63-.35.53-.54.36-.63.13-.63-.13-.54-.36-.36-.53Z" transform="translate(-718.57 -273.89)"/><path id="path19135" class="cls-43" d="M834.57,371a1.66,1.66,0,1,0-1.65,1.65A1.68,1.68,0,0,0,834.57,371Z" transform="translate(-718.57 -273.89)"/><path id="path19137" class="cls-44" d="M831.26,371l.13-.63.36-.54.53-.36.64-.12.63.12.53.36.36.54.13.63-.13.63-.36.54-.53.36-.63.12-.64-.12-.53-.36-.36-.54Z" transform="translate(-718.57 -273.89)"/><path id="path19139" class="cls-43" d="M841.35,344.18a1.65,1.65,0,1,0-1.65,1.66A1.67,1.67,0,0,0,841.35,344.18Z" transform="translate(-718.57 -273.89)"/><path id="path19141" class="cls-44" d="M838.05,344.18l.13-.63.35-.53.54-.36.63-.13.63.13.54.36.36.53.12.63-.12.64-.36.53-.54.36-.63.12-.63-.12-.54-.36-.35-.53Z" transform="translate(-718.57 -273.89)"/><path id="path19143" class="cls-43" d="M859.12,339.42a1.65,1.65,0,1,0-1.65,1.65A1.66,1.66,0,0,0,859.12,339.42Z" transform="translate(-718.57 -273.89)"/><path id="path19145" class="cls-44" d="M855.82,339.42l.13-.63.36-.54.53-.35.63-.13.64.13.53.35.36.54.12.63-.12.63-.36.54-.53.36-.64.12-.63-.12-.53-.36-.36-.54Z" transform="translate(-718.57 -273.89)"/><path id="path19147" class="cls-43" d="M834.57,371a1.66,1.66,0,1,0-1.65,1.65A1.68,1.68,0,0,0,834.57,371Z" transform="translate(-718.57 -273.89)"/><path id="path19149" class="cls-44" d="M831.26,371l.13-.63.36-.54.53-.36.64-.12.63.12.53.36.36.54.13.63-.13.63-.36.54-.53.36-.63.12-.64-.12-.53-.36-.36-.54Z" transform="translate(-718.57 -273.89)"/><path id="path19151" class="cls-43" d="M825.76,353.13a1.65,1.65,0,1,0-1.65,1.65A1.67,1.67,0,0,0,825.76,353.13Z" transform="translate(-718.57 -273.89)"/><path id="path19153" class="cls-44" d="M822.46,353.13l.12-.63.36-.54.54-.36.63-.12.63.12.54.36.36.54.12.63-.12.63-.36.54-.54.35-.63.13-.63-.13-.54-.35-.36-.54Z" transform="translate(-718.57 -273.89)"/><path id="path19155" class="cls-43" d="M841.67,392a1.66,1.66,0,1,0-1.65,1.65A1.68,1.68,0,0,0,841.67,392Z" transform="translate(-718.57 -273.89)"/><path id="path19157" class="cls-44" d="M838.36,392l.13-.63.36-.54.53-.35.64-.13.63.13.53.35.36.54.13.63-.13.63-.36.54-.53.36-.63.12-.64-.12-.53-.36-.36-.54Z" transform="translate(-718.57 -273.89)"/><path id="path19159" class="cls-43" d="M847.93,371.18a1.65,1.65,0,1,0-1.65,1.65A1.66,1.66,0,0,0,847.93,371.18Z" transform="translate(-718.57 -273.89)"/><path id="path19161" class="cls-44" d="M844.63,371.18l.12-.64.36-.53.54-.36.63-.13.63.13.54.36.35.53.13.64-.13.63-.35.53-.54.36-.63.13-.63-.13-.54-.36-.36-.53Z" transform="translate(-718.57 -273.89)"/><path id="path19163" class="cls-43" d="M847.93,371.18a1.65,1.65,0,1,0-1.65,1.65A1.66,1.66,0,0,0,847.93,371.18Z" transform="translate(-718.57 -273.89)"/><path id="path19165" class="cls-44" d="M844.63,371.18l.12-.64.36-.53.54-.36.63-.13.63.13.54.36.35.53.13.64-.13.63-.35.53-.54.36-.63.13-.63-.13-.54-.36-.36-.53Z" transform="translate(-718.57 -273.89)"/><path id="path19167" class="cls-43" d="M841.35,344.18a1.65,1.65,0,1,0-1.65,1.66A1.67,1.67,0,0,0,841.35,344.18Z" transform="translate(-718.57 -273.89)"/><path id="path19169" class="cls-44" d="M838.05,344.18l.13-.63.35-.53.54-.36.63-.13.63.13.54.36.36.53.12.63-.12.64-.36.53-.54.36-.63.12-.63-.12-.54-.36-.35-.53Z" transform="translate(-718.57 -273.89)"/><path id="path19171" class="cls-43" d="M811.88,441.27a1.65,1.65,0,1,0-1.65,1.65A1.68,1.68,0,0,0,811.88,441.27Z" transform="translate(-718.57 -273.89)"/><path id="path19173" class="cls-44" d="M808.58,441.27l.12-.64.36-.53.54-.36.63-.13.63.13.54.36.36.53.12.64-.12.63-.36.53-.54.36-.63.13-.63-.13-.54-.36-.36-.53Z" transform="translate(-718.57 -273.89)"/><path id="path19175" class="cls-43" d="M824.84,444a1.65,1.65,0,1,0-1.65,1.66A1.66,1.66,0,0,0,824.84,444Z" transform="translate(-718.57 -273.89)"/><path id="path19177" class="cls-44" d="M821.54,444l.13-.63.35-.53.54-.36.63-.13.63.13.54.36.36.53.12.63-.12.64-.36.53-.54.36-.63.13-.63-.13-.54-.36-.35-.53Z" transform="translate(-718.57 -273.89)"/><path id="path19179" class="cls-43" d="M821,433.11a1.65,1.65,0,1,0-1.65,1.65A1.66,1.66,0,0,0,821,433.11Z" transform="translate(-718.57 -273.89)"/><path id="path19181" class="cls-44" d="M817.66,433.11l.13-.63.36-.54.53-.35.63-.13.64.13.53.35.36.54.13.63-.13.63-.36.54-.53.36-.64.12-.63-.12-.53-.36-.36-.54Z" transform="translate(-718.57 -273.89)"/><path id="path19183" class="cls-43" d="M841.92,429.45a1.66,1.66,0,1,0-1.65,1.65A1.68,1.68,0,0,0,841.92,429.45Z" transform="translate(-718.57 -273.89)"/><path id="path19185" class="cls-44" d="M838.61,429.45l.13-.63.36-.54.53-.36.64-.12.63.12.53.36.36.54.13.63-.13.63-.36.54-.53.36-.63.12-.64-.12-.53-.36-.36-.54Z" transform="translate(-718.57 -273.89)"/><path id="path19187" class="cls-43" d="M806,392a1.65,1.65,0,1,0-3.3,0,1.65,1.65,0,1,0,3.3,0Z" transform="translate(-718.57 -273.89)"/><path id="path19189" class="cls-44" d="M802.68,392l.12-.63.36-.54.54-.35.63-.13.63.13.54.35.35.54.13.63-.13.63-.35.54-.54.36-.63.12-.63-.12-.54-.36-.36-.54Z" transform="translate(-718.57 -273.89)"/><path id="path19191" class="cls-43" d="M809.59,399.1a1.65,1.65,0,1,0-3.3,0,1.65,1.65,0,1,0,3.3,0Z" transform="translate(-718.57 -273.89)"/><path id="path19193" class="cls-44" d="M806.29,399.1l.12-.63.36-.53.54-.36.63-.13.63.13.54.36.36.53.12.63-.12.64-.36.53-.54.36-.63.13-.63-.13-.54-.36-.36-.53Z" transform="translate(-718.57 -273.89)"/><path id="path19195" class="cls-43" d="M860.87,355.48a1.66,1.66,0,1,0-1.65,1.66A1.68,1.68,0,0,0,860.87,355.48Z" transform="translate(-718.57 -273.89)"/><path id="path19197" class="cls-44" d="M857.56,355.48l.13-.63.36-.53.53-.36.64-.13.63.13.53.36.36.53.13.63-.13.64-.36.53-.53.36-.63.13-.64-.13-.53-.36-.36-.53Z" transform="translate(-718.57 -273.89)"/><path id="path19199" class="cls-43" d="M875.21,349.79a1.65,1.65,0,1,0-1.65,1.65A1.66,1.66,0,0,0,875.21,349.79Z" transform="translate(-718.57 -273.89)"/><path id="path19201" class="cls-44" d="M871.91,349.79l.12-.63.36-.54.54-.36.63-.12.63.12.54.36.35.54.13.63-.13.63-.35.54-.54.35-.63.13-.63-.13-.54-.35-.36-.54Z" transform="translate(-718.57 -273.89)"/><path id="path19203" class="cls-43" d="M875.21,349.79a1.65,1.65,0,1,0-1.65,1.65A1.66,1.66,0,0,0,875.21,349.79Z" transform="translate(-718.57 -273.89)"/><path id="path19205" class="cls-44" d="M871.91,349.79l.12-.63.36-.54.54-.36.63-.12.63.12.54.36.35.54.13.63-.13.63-.35.54-.54.35-.63.13-.63-.13-.54-.35-.36-.54Z" transform="translate(-718.57 -273.89)"/><path id="path19207" class="cls-43" d="M879.42,374.4a1.66,1.66,0,1,0-1.66,1.65A1.68,1.68,0,0,0,879.42,374.4Z" transform="translate(-718.57 -273.89)"/><path id="path19209" class="cls-44" d="M876.11,374.4l.13-.63.36-.54.53-.35.63-.13.64.13.53.35.36.54.13.63-.13.63-.36.54-.53.36-.64.12-.63-.12-.53-.36-.36-.54Z" transform="translate(-718.57 -273.89)"/><path id="path19211" class="cls-43" d="M860.08,392a1.65,1.65,0,1,0-1.65,1.65A1.67,1.67,0,0,0,860.08,392Z" transform="translate(-718.57 -273.89)"/><path id="path19213" class="cls-44" d="M856.78,392l.13-.63.35-.54.54-.35.63-.13.63.13.54.35.36.54.12.63-.12.63-.36.54-.54.36-.63.12-.63-.12-.54-.36-.35-.54Z" transform="translate(-718.57 -273.89)"/><path id="path19215" class="cls-43" d="M868.71,404.14a1.65,1.65,0,1,0-1.65,1.66A1.67,1.67,0,0,0,868.71,404.14Z" transform="translate(-718.57 -273.89)"/><path id="path19217" class="cls-44" d="M865.41,404.14l.13-.63.35-.53.54-.36.63-.13.63.13.54.36.36.53.12.63-.12.64-.36.53-.54.36-.63.13-.63-.13-.54-.36-.35-.53Z" transform="translate(-718.57 -273.89)"/><path id="path19227" class="cls-43" d="M806,392a1.65,1.65,0,1,0-3.3,0,1.65,1.65,0,1,0,3.3,0Z" transform="translate(-718.57 -273.89)"/><path id="path19229" class="cls-44" d="M802.68,392l.12-.63.36-.54.54-.35.63-.13.63.13.54.35.35.54.13.63-.13.63-.35.54-.54.36-.63.12-.63-.12-.54-.36-.36-.54Z" transform="translate(-718.57 -273.89)"/><path id="path19231" class="cls-43" d="M826.14,392a1.65,1.65,0,1,0-1.65,1.65A1.68,1.68,0,0,0,826.14,392Z" transform="translate(-718.57 -273.89)"/><path id="path19233" class="cls-44" d="M822.84,392l.12-.63.36-.54.54-.35.63-.13.63.13.54.35.36.54.12.63-.12.63-.36.54-.54.36-.63.12-.63-.12-.54-.36-.36-.54Z" transform="translate(-718.57 -273.89)"/><path id="path19235" class="cls-43" d="M816.8,337.6a1.65,1.65,0,1,0-1.65,1.66A1.68,1.68,0,0,0,816.8,337.6Z" transform="translate(-718.57 -273.89)"/><path id="path19237" class="cls-44" d="M813.5,337.6l.12-.63.36-.53.53-.36.64-.13.63.13.53.36.36.53.13.63-.13.64-.36.53-.53.36-.63.13-.64-.13-.53-.36-.36-.53Z" transform="translate(-718.57 -273.89)"/><path id="path19239" class="cls-43" d="M841.35,344.18a1.65,1.65,0,1,0-1.65,1.66A1.67,1.67,0,0,0,841.35,344.18Z" transform="translate(-718.57 -273.89)"/><path id="path19241" class="cls-44" d="M838.05,344.18l.13-.63.35-.53.54-.36.63-.13.63.13.54.36.36.53.12.63-.12.64-.36.53-.54.36-.63.12-.63-.12-.54-.36-.35-.53Z" transform="translate(-718.57 -273.89)"/><path id="path19243" class="cls-43" d="M873.69,424.19a1.65,1.65,0,1,0-1.65,1.65A1.66,1.66,0,0,0,873.69,424.19Z" transform="translate(-718.57 -273.89)"/><path id="path19245" class="cls-44" d="M870.39,424.19l.12-.64.36-.53.54-.36.63-.12.63.12.54.36.36.53.12.64-.12.63-.36.53-.54.36-.63.13-.63-.13-.54-.36-.36-.53Z" transform="translate(-718.57 -273.89)"/><path id="path19247" class="cls-43" d="M862,432.48a1.66,1.66,0,1,0-1.66,1.65A1.68,1.68,0,0,0,862,432.48Z" transform="translate(-718.57 -273.89)"/><path id="path19249" class="cls-44" d="M858.71,432.48l.13-.63.36-.54.53-.35.63-.13.64.13.53.35.36.54.13.63-.13.63-.36.54L861,434l-.64.12-.63-.12-.53-.36-.36-.54Z" transform="translate(-718.57 -273.89)"/><path id="path19251" class="cls-43" d="M874.38,453.64a1.65,1.65,0,0,0-3.3,0,1.65,1.65,0,0,0,3.3,0Z" transform="translate(-718.57 -273.89)"/><path id="path19253" class="cls-44" d="M871.08,453.64l.13-.63.35-.54.54-.36.63-.12.63.12.54.36.36.54.12.63-.12.63-.36.54-.54.35-.63.13-.63-.13-.54-.35-.35-.54Z" transform="translate(-718.57 -273.89)"/><path id="path19255" class="cls-43" d="M873.69,424.19a1.65,1.65,0,1,0-1.65,1.65A1.66,1.66,0,0,0,873.69,424.19Z" transform="translate(-718.57 -273.89)"/><path id="path19257" class="cls-44" d="M870.39,424.19l.12-.64.36-.53.54-.36.63-.12.63.12.54.36.36.53.12.64-.12.63-.36.53-.54.36-.63.13-.63-.13-.54-.36-.36-.53Z" transform="translate(-718.57 -273.89)"/><path id="path19259" class="cls-43" d="M826.14,392a1.65,1.65,0,1,0-1.65,1.65A1.68,1.68,0,0,0,826.14,392Z" transform="translate(-718.57 -273.89)"/><path id="path19261" class="cls-44" d="M822.84,392l.12-.63.36-.54.54-.35.63-.13.63.13.54.35.36.54.12.63-.12.63-.36.54-.54.36-.63.12-.63-.12-.54-.36-.36-.54Z" transform="translate(-718.57 -273.89)"/><path id="path19263" class="cls-43" d="M841.67,392a1.66,1.66,0,1,0-1.65,1.65A1.68,1.68,0,0,0,841.67,392Z" transform="translate(-718.57 -273.89)"/><path id="path19265" class="cls-44" d="M838.36,392l.13-.63.36-.54.53-.35.64-.13.63.13.53.35.36.54.13.63-.13.63-.36.54-.53.36-.63.12-.64-.12-.53-.36-.36-.54Z" transform="translate(-718.57 -273.89)"/><path id="path19267" class="cls-43" d="M859.12,339.42a1.65,1.65,0,1,0-1.65,1.65A1.66,1.66,0,0,0,859.12,339.42Z" transform="translate(-718.57 -273.89)"/><path id="path19269" class="cls-44" d="M855.82,339.42l.13-.63.36-.54.53-.35.63-.13.64.13.53.35.36.54.12.63-.12.63-.36.54-.53.36-.64.12-.63-.12-.53-.36-.36-.54Z" transform="translate(-718.57 -273.89)"/><path id="path19271" class="cls-43" d="M860.87,355.48a1.66,1.66,0,1,0-1.65,1.66A1.68,1.68,0,0,0,860.87,355.48Z" transform="translate(-718.57 -273.89)"/><path id="path19273" class="cls-44" d="M857.56,355.48l.13-.63.36-.53.53-.36.64-.13.63.13.53.36.36.53.13.63-.13.64-.36.53-.53.36-.63.13-.64-.13-.53-.36-.36-.53Z" transform="translate(-718.57 -273.89)"/><path id="path19275" class="cls-43" d="M826.14,392a1.65,1.65,0,1,0-1.65,1.65A1.68,1.68,0,0,0,826.14,392Z" transform="translate(-718.57 -273.89)"/><path id="path19277" class="cls-44" d="M822.84,392l.12-.63.36-.54.54-.35.63-.13.63.13.54.35.36.54.12.63-.12.63-.36.54-.54.36-.63.12-.63-.12-.54-.36-.36-.54Z" transform="translate(-718.57 -273.89)"/><path id="path19279" class="cls-43" d="M806,392a1.65,1.65,0,1,0-3.3,0,1.65,1.65,0,1,0,3.3,0Z" transform="translate(-718.57 -273.89)"/><path id="path19281" class="cls-44" d="M802.68,392l.12-.63.36-.54.54-.35.63-.13.63.13.54.35.35.54.13.63-.13.63-.35.54-.54.36-.63.12-.63-.12-.54-.36-.36-.54Z" transform="translate(-718.57 -273.89)"/><path id="path19283" class="cls-43" d="M844.91,421.78a1.66,1.66,0,1,0-1.66,1.65A1.67,1.67,0,0,0,844.91,421.78Z" transform="translate(-718.57 -273.89)"/><path id="path19285" class="cls-44" d="M841.6,421.78l.13-.63.36-.54.53-.36.63-.12.64.12.53.36.36.54.13.63-.13.63-.36.54-.53.35-.64.13-.63-.13-.53-.35-.36-.54Z" transform="translate(-718.57 -273.89)"/><path id="path19287" class="cls-43" d="M862,432.48a1.66,1.66,0,1,0-1.66,1.65A1.68,1.68,0,0,0,862,432.48Z" transform="translate(-718.57 -273.89)"/><path id="path19289" class="cls-44" d="M858.71,432.48l.13-.63.36-.54.53-.35.63-.13.64.13.53.35.36.54.13.63-.13.63-.36.54L861,434l-.64.12-.63-.12-.53-.36-.36-.54Z" transform="translate(-718.57 -273.89)"/><path id="path19291" class="cls-43" d="M869,375.19a1.65,1.65,0,1,0-1.65,1.66A1.68,1.68,0,0,0,869,375.19Z" transform="translate(-718.57 -273.89)"/><path id="path19293" class="cls-44" d="M865.67,375.19l.12-.63.36-.53.53-.36.64-.13.63.13.53.36.36.53.13.63-.13.64-.36.53-.53.36-.63.13-.64-.13-.53-.36-.36-.53Z" transform="translate(-718.57 -273.89)"/><path id="path19295" class="cls-43" d="M841.67,392a1.66,1.66,0,1,0-1.65,1.65A1.68,1.68,0,0,0,841.67,392Z" transform="translate(-718.57 -273.89)"/><path id="path19297" class="cls-44" d="M838.36,392l.13-.63.36-.54.53-.35.64-.13.63.13.53.35.36.54.13.63-.13.63-.36.54-.53.36-.63.12-.64-.12-.53-.36-.36-.54Z" transform="translate(-718.57 -273.89)"/><path id="path19299" class="cls-43" d="M830.1,413a1.65,1.65,0,1,0-1.65,1.65A1.67,1.67,0,0,0,830.1,413Z" transform="translate(-718.57 -273.89)"/><path id="path19301" class="cls-44" d="M826.8,413l.13-.63.35-.54.54-.35.63-.13.63.13.54.35.36.54.12.63-.12.63-.36.54-.54.36-.63.12-.63-.12-.54-.36-.35-.54Z" transform="translate(-718.57 -273.89)"/><path id="path19303" class="cls-43" d="M826.14,392a1.65,1.65,0,1,0-1.65,1.65A1.68,1.68,0,0,0,826.14,392Z" transform="translate(-718.57 -273.89)"/><path id="path19305" class="cls-44" d="M822.84,392l.12-.63.36-.54.54-.35.63-.13.63.13.54.35.36.54.12.63-.12.63-.36.54-.54.36-.63.12-.63-.12-.54-.36-.36-.54Z" transform="translate(-718.57 -273.89)"/><path id="path19307" class="cls-43" d="M870.24,392a1.65,1.65,0,1,0-1.65,1.65A1.67,1.67,0,0,0,870.24,392Z" transform="translate(-718.57 -273.89)"/><path id="path19309" class="cls-44" d="M866.94,392l.13-.63.35-.54.54-.35.63-.13.63.13.54.35.36.54.12.63-.12.63-.36.54-.54.36-.63.12-.63-.12-.54-.36-.35-.54Z" transform="translate(-718.57 -273.89)"/><path id="path19311" class="cls-43" d="M860.08,392a1.65,1.65,0,1,0-1.65,1.65A1.67,1.67,0,0,0,860.08,392Z" transform="translate(-718.57 -273.89)"/><path id="path19313" class="cls-44" d="M856.78,392l.13-.63.35-.54.54-.35.63-.13.63.13.54.35.36.54.12.63-.12.63-.36.54-.54.36-.63.12-.63-.12-.54-.36-.35-.54Z" transform="translate(-718.57 -273.89)"/><path id="path19315" class="cls-43" d="M853.2,439.29a1.66,1.66,0,1,0-1.66,1.66A1.68,1.68,0,0,0,853.2,439.29Z" transform="translate(-718.57 -273.89)"/><path id="path19317" class="cls-44" d="M849.89,439.29l.13-.63.36-.53.53-.36.63-.13.64.13.53.36.36.53.13.63-.13.64-.36.53-.53.36-.64.13-.63-.13-.53-.36-.36-.53Z" transform="translate(-718.57 -273.89)"/><path id="path19319" class="cls-43" d="M844.91,421.78a1.66,1.66,0,1,0-1.66,1.65A1.67,1.67,0,0,0,844.91,421.78Z" transform="translate(-718.57 -273.89)"/><path id="path19321" class="cls-44" d="M841.6,421.78l.13-.63.36-.54.53-.36.63-.12.64.12.53.36.36.54.13.63-.13.63-.36.54-.53.35-.64.13-.63-.13-.53-.35-.36-.54Z" transform="translate(-718.57 -273.89)"/><path id="path19323" class="cls-43" d="M859.12,339.42a1.65,1.65,0,1,0-1.65,1.65A1.66,1.66,0,0,0,859.12,339.42Z" transform="translate(-718.57 -273.89)"/><path id="path19325" class="cls-44" d="M855.82,339.42l.13-.63.36-.54.53-.35.63-.13.64.13.53.35.36.54.12.63-.12.63-.36.54-.53.36-.64.12-.63-.12-.53-.36-.36-.54Z" transform="translate(-718.57 -273.89)"/><path id="path19327" class="cls-43" d="M875.21,349.79a1.65,1.65,0,1,0-1.65,1.65A1.66,1.66,0,0,0,875.21,349.79Z" transform="translate(-718.57 -273.89)"/><path id="path19329" class="cls-44" d="M871.91,349.79l.12-.63.36-.54.54-.36.63-.12.63.12.54.36.35.54.13.63-.13.63-.35.54-.54.35-.63.13-.63-.13-.54-.35-.36-.54Z" transform="translate(-718.57 -273.89)"/><path id="path19331" class="cls-43" d="M868.71,404.14a1.65,1.65,0,1,0-1.65,1.66A1.67,1.67,0,0,0,868.71,404.14Z" transform="translate(-718.57 -273.89)"/><path id="path19333" class="cls-44" d="M865.41,404.14l.13-.63.35-.53.54-.36.63-.13.63.13.54.36.36.53.12.63-.12.64-.36.53-.54.36-.63.13-.63-.13-.54-.36-.35-.53Z" transform="translate(-718.57 -273.89)"/><path id="path19337" class="cls-44" d="M851.06,411.75l.13-.63.35-.54.54-.36.63-.12.63.12.54.36.36.54.12.63-.12.63-.36.54-.54.35-.63.13-.63-.13-.54-.35-.35-.54Z" transform="translate(-718.57 -273.89)"/><path id="path19339" class="cls-43" d="M809.35,422.5a1.65,1.65,0,1,0-1.65,1.65A1.68,1.68,0,0,0,809.35,422.5Z" transform="translate(-718.57 -273.89)"/><path id="path19341" class="cls-44" d="M806.05,422.5l.12-.63.36-.54.54-.36.63-.12.63.12.54.36.36.54.12.63-.12.63-.36.54-.54.36-.63.12-.63-.12-.54-.36-.36-.54Z" transform="translate(-718.57 -273.89)"/><path id="path19343" class="cls-43" d="M811.88,441.27a1.65,1.65,0,1,0-1.65,1.65A1.68,1.68,0,0,0,811.88,441.27Z" transform="translate(-718.57 -273.89)"/><path id="path19345" class="cls-44" d="M808.58,441.27l.12-.64.36-.53.54-.36.63-.13.63.13.54.36.36.53.12.64-.12.63-.36.53-.54.36-.63.13-.63-.13-.54-.36-.36-.53Z" transform="translate(-718.57 -273.89)"/><path id="path19347" class="cls-43" d="M816.8,337.6a1.65,1.65,0,1,0-1.65,1.66A1.68,1.68,0,0,0,816.8,337.6Z" transform="translate(-718.57 -273.89)"/><path id="path19349" class="cls-44" d="M813.5,337.6l.12-.63.36-.53.53-.36.64-.13.63.13.53.36.36.53.13.63-.13.64-.36.53-.53.36-.63.13-.64-.13-.53-.36-.36-.53Z" transform="translate(-718.57 -273.89)"/><path id="path19351" class="cls-43" d="M825.76,353.13a1.65,1.65,0,1,0-1.65,1.65A1.67,1.67,0,0,0,825.76,353.13Z" transform="translate(-718.57 -273.89)"/><path id="path19353" class="cls-44" d="M822.46,353.13l.12-.63.36-.54.54-.36.63-.12.63.12.54.36.36.54.12.63-.12.63-.36.54-.54.35-.63.13-.63-.13-.54-.35-.36-.54Z" transform="translate(-718.57 -273.89)"/><path id="path19355" class="cls-43" d="M799.24,375.82a1.65,1.65,0,1,0-1.65,1.65A1.68,1.68,0,0,0,799.24,375.82Z" transform="translate(-718.57 -273.89)"/><path id="path19357" class="cls-44" d="M795.94,375.82l.12-.64.36-.53.54-.36.63-.12.63.12.54.36.36.53.12.64-.12.63-.36.53-.54.36-.63.13-.63-.13-.54-.36-.36-.53Z" transform="translate(-718.57 -273.89)"/><path id="path19359" class="cls-43" d="M806,392a1.65,1.65,0,1,0-3.3,0,1.65,1.65,0,1,0,3.3,0Z" transform="translate(-718.57 -273.89)"/><path id="path19361" class="cls-44" d="M802.68,392l.12-.63.36-.54.54-.35.63-.13.63.13.54.35.35.54.13.63-.13.63-.35.54-.54.36-.63.12-.63-.12-.54-.36-.36-.54Z" transform="translate(-718.57 -273.89)"/><path id="path19363" class="cls-43" d="M844.91,421.78a1.66,1.66,0,1,0-1.66,1.65A1.67,1.67,0,0,0,844.91,421.78Z" transform="translate(-718.57 -273.89)"/><path id="path19365" class="cls-44" d="M841.6,421.78l.13-.63.36-.54.53-.36.63-.12.64.12.53.36.36.54.13.63-.13.63-.36.54-.53.35-.64.13-.63-.13-.53-.35-.36-.54Z" transform="translate(-718.57 -273.89)"/><path id="path19367" class="cls-43" d="M821,433.11a1.65,1.65,0,1,0-1.65,1.65A1.66,1.66,0,0,0,821,433.11Z" transform="translate(-718.57 -273.89)"/><path id="path19369" class="cls-44" d="M817.66,433.11l.13-.63.36-.54.53-.35.63-.13.64.13.53.35.36.54.13.63-.13.63-.36.54-.53.36-.64.12-.63-.12-.53-.36-.36-.54Z" transform="translate(-718.57 -273.89)"/><path id="path19371" class="cls-43" d="M844.91,421.78a1.66,1.66,0,1,0-1.66,1.65A1.67,1.67,0,0,0,844.91,421.78Z" transform="translate(-718.57 -273.89)"/><path id="path19373" class="cls-44" d="M841.6,421.78l.13-.63.36-.54.53-.36.63-.12.64.12.53.36.36.54.13.63-.13.63-.36.54-.53.35-.64.13-.63-.13-.53-.35-.36-.54Z" transform="translate(-718.57 -273.89)"/><path id="path19375" class="cls-43" d="M841.92,429.45a1.66,1.66,0,1,0-1.65,1.65A1.68,1.68,0,0,0,841.92,429.45Z" transform="translate(-718.57 -273.89)"/><path id="path19377" class="cls-44" d="M838.61,429.45l.13-.63.36-.54.53-.36.64-.12.63.12.53.36.36.54.13.63-.13.63-.36.54-.53.36-.63.12-.64-.12-.53-.36-.36-.54Z" transform="translate(-718.57 -273.89)"/><path id="path19379" class="cls-43" d="M869,375.19a1.65,1.65,0,1,0-1.65,1.66A1.68,1.68,0,0,0,869,375.19Z" transform="translate(-718.57 -273.89)"/><path id="path19381" class="cls-44" d="M865.67,375.19l.12-.63.36-.53.53-.36.64-.13.63.13.53.36.36.53.13.63-.13.64-.36.53-.53.36-.63.13-.64-.13-.53-.36-.36-.53Z" transform="translate(-718.57 -273.89)"/><path id="path19383" class="cls-43" d="M870.24,392a1.65,1.65,0,1,0-1.65,1.65A1.67,1.67,0,0,0,870.24,392Z" transform="translate(-718.57 -273.89)"/><path id="path19385" class="cls-44" d="M866.94,392l.13-.63.35-.54.54-.35.63-.13.63.13.54.35.36.54.12.63-.12.63-.36.54-.54.36-.63.12-.63-.12-.54-.36-.35-.54Z" transform="translate(-718.57 -273.89)"/><path id="path19387" class="cls-43" d="M811.88,441.27a1.65,1.65,0,1,0-1.65,1.65A1.68,1.68,0,0,0,811.88,441.27Z" transform="translate(-718.57 -273.89)"/><path id="path19389" class="cls-44" d="M808.58,441.27l.12-.64.36-.53.54-.36.63-.13.63.13.54.36.36.53.12.64-.12.63-.36.53-.54.36-.63.13-.63-.13-.54-.36-.36-.53Z" transform="translate(-718.57 -273.89)"/><path id="path19391" class="cls-43" d="M814.61,457.56a1.65,1.65,0,1,0-1.65,1.65A1.66,1.66,0,0,0,814.61,457.56Z" transform="translate(-718.57 -273.89)"/><path id="path19393" class="cls-44" d="M811.31,457.56l.12-.63.36-.54.54-.36.63-.12.63.12.54.36.36.54.12.63-.12.63-.36.54-.54.35-.63.13-.63-.13-.54-.35-.36-.54Z" transform="translate(-718.57 -273.89)"/><path id="path19397" class="cls-44" d="M851.06,411.75l.13-.63.35-.54.54-.36.63-.12.63.12.54.36.36.54.12.63-.12.63-.36.54-.54.35-.63.13-.63-.13-.54-.35-.35-.54Z" transform="translate(-718.57 -273.89)"/><path id="path19399" class="cls-43" d="M830.1,413a1.65,1.65,0,1,0-1.65,1.65A1.67,1.67,0,0,0,830.1,413Z" transform="translate(-718.57 -273.89)"/><path id="path19401" class="cls-44" d="M826.8,413l.13-.63.35-.54.54-.35.63-.13.63.13.54.35.36.54.12.63-.12.63-.36.54-.54.36-.63.12-.63-.12-.54-.36-.35-.54Z" transform="translate(-718.57 -273.89)"/><path id="path19403" class="cls-43" d="M814.61,457.56a1.65,1.65,0,1,0-1.65,1.65A1.66,1.66,0,0,0,814.61,457.56Z" transform="translate(-718.57 -273.89)"/><path id="path19405" class="cls-44" d="M811.31,457.56l.12-.63.36-.54.54-.36.63-.12.63.12.54.36.36.54.12.63-.12.63-.36.54-.54.35-.63.13-.63-.13-.54-.35-.36-.54Z" transform="translate(-718.57 -273.89)"/><path id="path19407" class="cls-43" d="M824.84,444a1.65,1.65,0,1,0-1.65,1.66A1.66,1.66,0,0,0,824.84,444Z" transform="translate(-718.57 -273.89)"/><path id="path19409" class="cls-44" d="M821.54,444l.13-.63.35-.53.54-.36.63-.13.63.13.54.36.36.53.12.63-.12.64-.36.53-.54.36-.63.13-.63-.13-.54-.36-.35-.53Z" transform="translate(-718.57 -273.89)"/><path id="path19411" class="cls-43" d="M826.14,392a1.65,1.65,0,1,0-1.65,1.65A1.68,1.68,0,0,0,826.14,392Z" transform="translate(-718.57 -273.89)"/><path id="path19413" class="cls-44" d="M822.84,392l.12-.63.36-.54.54-.35.63-.13.63.13.54.35.36.54.12.63-.12.63-.36.54-.54.36-.63.12-.63-.12-.54-.36-.36-.54Z" transform="translate(-718.57 -273.89)"/><path id="path19415" class="cls-43" d="M818,368.68a1.65,1.65,0,1,0-1.65,1.65A1.66,1.66,0,0,0,818,368.68Z" transform="translate(-718.57 -273.89)"/><path id="path19417" class="cls-44" d="M814.65,368.68l.12-.63.36-.54.54-.36.63-.12.63.12.54.36.36.54.12.63-.12.63-.36.54-.54.35-.63.13-.63-.13-.54-.35-.36-.54Z" transform="translate(-718.57 -273.89)"/><path id="path19419" class="cls-43" d="M868.71,404.14a1.65,1.65,0,1,0-1.65,1.66A1.67,1.67,0,0,0,868.71,404.14Z" transform="translate(-718.57 -273.89)"/><path id="path19421" class="cls-44" d="M865.41,404.14l.13-.63.35-.53.54-.36.63-.13.63.13.54.36.36.53.12.63-.12.64-.36.53-.54.36-.63.13-.63-.13-.54-.36-.35-.53Z" transform="translate(-718.57 -273.89)"/><path id="path19425" class="cls-44" d="M851.06,411.75l.13-.63.35-.54.54-.36.63-.12.63.12.54.36.36.54.12.63-.12.63-.36.54-.54.35-.63.13-.63-.13-.54-.35-.35-.54Z" transform="translate(-718.57 -273.89)"/><path id="path19427" class="cls-43" d="M830.1,413a1.65,1.65,0,1,0-1.65,1.65A1.67,1.67,0,0,0,830.1,413Z" transform="translate(-718.57 -273.89)"/><path id="path19429" class="cls-44" d="M826.8,413l.13-.63.35-.54.54-.35.63-.13.63.13.54.35.36.54.12.63-.12.63-.36.54-.54.36-.63.12-.63-.12-.54-.36-.35-.54Z" transform="translate(-718.57 -273.89)"/><path id="path19431" class="cls-43" d="M809.59,399.1a1.65,1.65,0,1,0-3.3,0,1.65,1.65,0,1,0,3.3,0Z" transform="translate(-718.57 -273.89)"/><path id="path19433" class="cls-44" d="M806.29,399.1l.12-.63.36-.53.54-.36.63-.13.63.13.54.36.36.53.12.63-.12.64-.36.53-.54.36-.63.13-.63-.13-.54-.36-.36-.53Z" transform="translate(-718.57 -273.89)"/><path id="path19443" class="cls-43" d="M830.1,413a1.65,1.65,0,1,0-1.65,1.65A1.67,1.67,0,0,0,830.1,413Z" transform="translate(-718.57 -273.89)"/><path id="path19445" class="cls-44" d="M826.8,413l.13-.63.35-.54.54-.35.63-.13.63.13.54.35.36.54.12.63-.12.63-.36.54-.54.36-.63.12-.63-.12-.54-.36-.35-.54Z" transform="translate(-718.57 -273.89)"/><path id="path19447" class="cls-43" d="M844.91,421.78a1.66,1.66,0,1,0-1.66,1.65A1.67,1.67,0,0,0,844.91,421.78Z" transform="translate(-718.57 -273.89)"/><path id="path19449" class="cls-44" d="M841.6,421.78l.13-.63.36-.54.53-.36.63-.12.64.12.53.36.36.54.13.63-.13.63-.36.54-.53.35-.64.13-.63-.13-.53-.35-.36-.54Z" transform="translate(-718.57 -273.89)"/><path id="path19451" class="cls-43" d="M862,432.48a1.66,1.66,0,1,0-1.66,1.65A1.68,1.68,0,0,0,862,432.48Z" transform="translate(-718.57 -273.89)"/><path id="path19453" class="cls-44" d="M858.71,432.48l.13-.63.36-.54.53-.35.63-.13.64.13.53.35.36.54.13.63-.13.63-.36.54L861,434l-.64.12-.63-.12-.53-.36-.36-.54Z" transform="translate(-718.57 -273.89)"/><path id="path19455" class="cls-43" d="M874.38,453.64a1.65,1.65,0,0,0-3.3,0,1.65,1.65,0,0,0,3.3,0Z" transform="translate(-718.57 -273.89)"/><path id="path19457" class="cls-44" d="M871.08,453.64l.13-.63.35-.54.54-.36.63-.12.63.12.54.36.36.54.12.63-.12.63-.36.54-.54.35-.63.13-.63-.13-.54-.35-.35-.54Z" transform="translate(-718.57 -273.89)"/><path id="path19459" class="cls-43" d="M810.77,410.2a1.66,1.66,0,1,0-1.65,1.65A1.68,1.68,0,0,0,810.77,410.2Z" transform="translate(-718.57 -273.89)"/><path id="path19461" class="cls-44" d="M807.46,410.2l.13-.63L808,409l.53-.35.64-.13.63.13.53.35.36.54.13.63-.13.63-.36.54-.53.36-.63.12-.64-.12-.53-.36-.36-.54Z" transform="translate(-718.57 -273.89)"/><path id="path19463" class="cls-43" d="M809.35,422.5a1.65,1.65,0,1,0-1.65,1.65A1.68,1.68,0,0,0,809.35,422.5Z" transform="translate(-718.57 -273.89)"/><path id="path19465" class="cls-44" d="M806.05,422.5l.12-.63.36-.54.54-.36.63-.12.63.12.54.36.36.54.12.63-.12.63-.36.54-.54.36-.63.12-.63-.12-.54-.36-.36-.54Z" transform="translate(-718.57 -273.89)"/><path id="path19467" class="cls-43" d="M860.08,392a1.65,1.65,0,1,0-1.65,1.65A1.67,1.67,0,0,0,860.08,392Z" transform="translate(-718.57 -273.89)"/><path id="path19469" class="cls-44" d="M856.78,392l.13-.63.35-.54.54-.35.63-.13.63.13.54.35.36.54.12.63-.12.63-.36.54-.54.36-.63.12-.63-.12-.54-.36-.35-.54Z" transform="translate(-718.57 -273.89)"/><path id="path19471" class="cls-43" d="M841.75,404.84a1.65,1.65,0,1,0-1.65,1.65A1.68,1.68,0,0,0,841.75,404.84Z" transform="translate(-718.57 -273.89)"/><path id="path19473" class="cls-44" d="M838.45,404.84l.12-.63.36-.54.54-.35.63-.13.63.13.54.35.35.54.13.63-.13.63-.35.54-.54.36-.63.12-.63-.12-.54-.36-.36-.54Z" transform="translate(-718.57 -273.89)"/><path id="path19477" class="cls-44" d="M851.06,411.75l.13-.63.35-.54.54-.36.63-.12.63.12.54.36.36.54.12.63-.12.63-.36.54-.54.35-.63.13-.63-.13-.54-.35-.35-.54Z" transform="translate(-718.57 -273.89)"/><path id="path19479" class="cls-43" d="M873.69,424.19a1.65,1.65,0,1,0-1.65,1.65A1.66,1.66,0,0,0,873.69,424.19Z" transform="translate(-718.57 -273.89)"/><path id="path19481" class="cls-44" d="M870.39,424.19l.12-.64.36-.53.54-.36.63-.12.63.12.54.36.36.53.12.64-.12.63-.36.53-.54.36-.63.13-.63-.13-.54-.36-.36-.53Z" transform="translate(-718.57 -273.89)"/><path id="path19483" class="cls-43" d="M841.92,429.45a1.66,1.66,0,1,0-1.65,1.65A1.68,1.68,0,0,0,841.92,429.45Z" transform="translate(-718.57 -273.89)"/><path id="path19485" class="cls-44" d="M838.61,429.45l.13-.63.36-.54.53-.36.64-.12.63.12.53.36.36.54.13.63-.13.63-.36.54-.53.36-.63.12-.64-.12-.53-.36-.36-.54Z" transform="translate(-718.57 -273.89)"/><path id="path19487" class="cls-43" d="M824.84,444a1.65,1.65,0,1,0-1.65,1.66A1.66,1.66,0,0,0,824.84,444Z" transform="translate(-718.57 -273.89)"/><path id="path19489" class="cls-44" d="M821.54,444l.13-.63.35-.53.54-.36.63-.13.63.13.54.36.36.53.12.63-.12.64-.36.53-.54.36-.63.13-.63-.13-.54-.36-.35-.53Z" transform="translate(-718.57 -273.89)"/><path id="path19491" class="cls-43" d="M860.08,392a1.65,1.65,0,1,0-1.65,1.65A1.67,1.67,0,0,0,860.08,392Z" transform="translate(-718.57 -273.89)"/><path id="path19493" class="cls-44" d="M856.78,392l.13-.63.35-.54.54-.35.63-.13.63.13.54.35.36.54.12.63-.12.63-.36.54-.54.36-.63.12-.63-.12-.54-.36-.35-.54Z" transform="translate(-718.57 -273.89)"/><path id="path19495" class="cls-43" d="M841.67,392a1.66,1.66,0,1,0-1.65,1.65A1.68,1.68,0,0,0,841.67,392Z" transform="translate(-718.57 -273.89)"/><path id="path19497" class="cls-44" d="M838.36,392l.13-.63.36-.54.53-.35.64-.13.63.13.53.35.36.54.13.63-.13.63-.36.54-.53.36-.63.12-.64-.12-.53-.36-.36-.54Z" transform="translate(-718.57 -273.89)"/><path id="path19499" class="cls-43" d="M841.75,404.84a1.65,1.65,0,1,0-1.65,1.65A1.68,1.68,0,0,0,841.75,404.84Z" transform="translate(-718.57 -273.89)"/><path id="path19501" class="cls-44" d="M838.45,404.84l.12-.63.36-.54.54-.35.63-.13.63.13.54.35.35.54.13.63-.13.63-.35.54-.54.36-.63.12-.63-.12-.54-.36-.36-.54Z" transform="translate(-718.57 -273.89)"/><path id="path19503" class="cls-43" d="M830.1,413a1.65,1.65,0,1,0-1.65,1.65A1.67,1.67,0,0,0,830.1,413Z" transform="translate(-718.57 -273.89)"/><path id="path19505" class="cls-44" d="M826.8,413l.13-.63.35-.54.54-.35.63-.13.63.13.54.35.36.54.12.63-.12.63-.36.54-.54.36-.63.12-.63-.12-.54-.36-.35-.54Z" transform="translate(-718.57 -273.89)"/><path id="path19507" class="cls-43" d="M869,375.19a1.65,1.65,0,1,0-1.65,1.66A1.68,1.68,0,0,0,869,375.19Z" transform="translate(-718.57 -273.89)"/><path id="path19509" class="cls-44" d="M865.67,375.19l.12-.63.36-.53.53-.36.64-.13.63.13.53.36.36.53.13.63-.13.64-.36.53-.53.36-.63.13-.64-.13-.53-.36-.36-.53Z" transform="translate(-718.57 -273.89)"/><path id="path19511" class="cls-43" d="M860.08,392a1.65,1.65,0,1,0-1.65,1.65A1.67,1.67,0,0,0,860.08,392Z" transform="translate(-718.57 -273.89)"/><path id="path19513" class="cls-44" d="M856.78,392l.13-.63.35-.54.54-.35.63-.13.63.13.54.35.36.54.12.63-.12.63-.36.54-.54.36-.63.12-.63-.12-.54-.36-.35-.54Z" transform="translate(-718.57 -273.89)"/><path id="path19515" class="cls-43" d="M826.14,392a1.65,1.65,0,1,0-1.65,1.65A1.68,1.68,0,0,0,826.14,392Z" transform="translate(-718.57 -273.89)"/><path id="path19517" class="cls-44" d="M822.84,392l.12-.63.36-.54.54-.35.63-.13.63.13.54.35.36.54.12.63-.12.63-.36.54-.54.36-.63.12-.63-.12-.54-.36-.36-.54Z" transform="translate(-718.57 -273.89)"/><path id="path19519" class="cls-43" d="M834.57,371a1.66,1.66,0,1,0-1.65,1.65A1.68,1.68,0,0,0,834.57,371Z" transform="translate(-718.57 -273.89)"/><path id="path19521" class="cls-44" d="M831.26,371l.13-.63.36-.54.53-.36.64-.12.63.12.53.36.36.54.13.63-.13.63-.36.54-.53.36-.63.12-.64-.12-.53-.36-.36-.54Z" transform="translate(-718.57 -273.89)"/><path id="path19523" class="cls-43" d="M799.24,375.82a1.65,1.65,0,1,0-1.65,1.65A1.68,1.68,0,0,0,799.24,375.82Z" transform="translate(-718.57 -273.89)"/><path id="path19525" class="cls-44" d="M795.94,375.82l.12-.64.36-.53.54-.36.63-.12.63.12.54.36.36.53.12.64-.12.63-.36.53-.54.36-.63.13-.63-.13-.54-.36-.36-.53Z" transform="translate(-718.57 -273.89)"/><path id="path19527" class="cls-43" d="M806,350.75a1.66,1.66,0,1,0-1.65,1.65A1.68,1.68,0,0,0,806,350.75Z" transform="translate(-718.57 -273.89)"/><path id="path19529" class="cls-44" d="M802.65,350.75l.13-.64.36-.53.53-.36.64-.13.63.13.53.36.36.53.13.64-.13.63-.36.53-.53.36-.63.13-.64-.13-.53-.36-.36-.53Z" transform="translate(-718.57 -273.89)"/><path id="path19531" class="cls-43" d="M834.57,371a1.66,1.66,0,1,0-1.65,1.65A1.68,1.68,0,0,0,834.57,371Z" transform="translate(-718.57 -273.89)"/><path id="path19533" class="cls-44" d="M831.26,371l.13-.63.36-.54.53-.36.64-.12.63.12.53.36.36.54.13.63-.13.63-.36.54-.53.36-.63.12-.64-.12-.53-.36-.36-.54Z" transform="translate(-718.57 -273.89)"/><path id="path19535" class="cls-43" d="M841.67,392a1.66,1.66,0,1,0-1.65,1.65A1.68,1.68,0,0,0,841.67,392Z" transform="translate(-718.57 -273.89)"/><path id="path19537" class="cls-44" d="M838.36,392l.13-.63.36-.54.53-.35.64-.13.63.13.53.35.36.54.13.63-.13.63-.36.54-.53.36-.63.12-.64-.12-.53-.36-.36-.54Z" transform="translate(-718.57 -273.89)"/><path id="path19539" class="cls-43" d="M860.87,355.48a1.66,1.66,0,1,0-1.65,1.66A1.68,1.68,0,0,0,860.87,355.48Z" transform="translate(-718.57 -273.89)"/><path id="path19541" class="cls-44" d="M857.56,355.48l.13-.63.36-.53.53-.36.64-.13.63.13.53.36.36.53.13.63-.13.64-.36.53-.53.36-.63.13-.64-.13-.53-.36-.36-.53Z" transform="translate(-718.57 -273.89)"/><path id="path19543" class="cls-43" d="M869,375.19a1.65,1.65,0,1,0-1.65,1.66A1.68,1.68,0,0,0,869,375.19Z" transform="translate(-718.57 -273.89)"/><path id="path19545" class="cls-44" d="M865.67,375.19l.12-.63.36-.53.53-.36.64-.13.63.13.53.36.36.53.13.63-.13.64-.36.53-.53.36-.63.13-.64-.13-.53-.36-.36-.53Z" transform="translate(-718.57 -273.89)"/><path id="path19547" class="cls-43" d="M834.57,371a1.66,1.66,0,1,0-1.65,1.65A1.68,1.68,0,0,0,834.57,371Z" transform="translate(-718.57 -273.89)"/><path id="path19549" class="cls-44" d="M831.26,371l.13-.63.36-.54.53-.36.64-.12.63.12.53.36.36.54.13.63-.13.63-.36.54-.53.36-.63.12-.64-.12-.53-.36-.36-.54Z" transform="translate(-718.57 -273.89)"/><path id="path19551" class="cls-43" d="M825.76,353.13a1.65,1.65,0,1,0-1.65,1.65A1.67,1.67,0,0,0,825.76,353.13Z" transform="translate(-718.57 -273.89)"/><path id="path19553" class="cls-44" d="M822.46,353.13l.12-.63.36-.54.54-.36.63-.12.63.12.54.36.36.54.12.63-.12.63-.36.54-.54.35-.63.13-.63-.13-.54-.35-.36-.54Z" transform="translate(-718.57 -273.89)"/><path id="path19555" class="cls-43" d="M841.35,344.18a1.65,1.65,0,1,0-1.65,1.66A1.67,1.67,0,0,0,841.35,344.18Z" transform="translate(-718.57 -273.89)"/><path id="path19557" class="cls-44" d="M838.05,344.18l.13-.63.35-.53.54-.36.63-.13.63.13.54.36.36.53.12.63-.12.64-.36.53-.54.36-.63.12-.63-.12-.54-.36-.35-.53Z" transform="translate(-718.57 -273.89)"/><path id="path19559" class="cls-43" d="M834.57,371a1.66,1.66,0,1,0-1.65,1.65A1.68,1.68,0,0,0,834.57,371Z" transform="translate(-718.57 -273.89)"/><path id="path19561" class="cls-44" d="M831.26,371l.13-.63.36-.54.53-.36.64-.12.63.12.53.36.36.54.13.63-.13.63-.36.54-.53.36-.63.12-.64-.12-.53-.36-.36-.54Z" transform="translate(-718.57 -273.89)"/><path id="path19563" class="cls-43" d="M873.69,424.19a1.65,1.65,0,1,0-1.65,1.65A1.66,1.66,0,0,0,873.69,424.19Z" transform="translate(-718.57 -273.89)"/><path id="path19565" class="cls-44" d="M870.39,424.19l.12-.64.36-.53.54-.36.63-.12.63.12.54.36.36.53.12.64-.12.63-.36.53-.54.36-.63.13-.63-.13-.54-.36-.36-.53Z" transform="translate(-718.57 -273.89)"/><path id="path19567" class="cls-43" d="M868.71,404.14a1.65,1.65,0,1,0-1.65,1.66A1.67,1.67,0,0,0,868.71,404.14Z" transform="translate(-718.57 -273.89)"/><path id="path19569" class="cls-44" d="M865.41,404.14l.13-.63.35-.53.54-.36.63-.13.63.13.54.36.36.53.12.63-.12.64-.36.53-.54.36-.63.13-.63-.13-.54-.36-.35-.53Z" transform="translate(-718.57 -273.89)"/><path id="path19571" class="cls-43" d="M841.67,392a1.66,1.66,0,1,0-1.65,1.65A1.68,1.68,0,0,0,841.67,392Z" transform="translate(-718.57 -273.89)"/><path id="path19573" class="cls-44" d="M838.36,392l.13-.63.36-.54.53-.35.64-.13.63.13.53.35.36.54.13.63-.13.63-.36.54-.53.36-.63.12-.64-.12-.53-.36-.36-.54Z" transform="translate(-718.57 -273.89)"/><path id="path19575" class="cls-43" d="M826.14,392a1.65,1.65,0,1,0-1.65,1.65A1.68,1.68,0,0,0,826.14,392Z" transform="translate(-718.57 -273.89)"/><path id="path19577" class="cls-44" d="M822.84,392l.12-.63.36-.54.54-.35.63-.13.63.13.54.35.36.54.12.63-.12.63-.36.54-.54.36-.63.12-.63-.12-.54-.36-.36-.54Z" transform="translate(-718.57 -273.89)"/><path id="path19579" class="cls-43" d="M824.84,444a1.65,1.65,0,1,0-1.65,1.66A1.66,1.66,0,0,0,824.84,444Z" transform="translate(-718.57 -273.89)"/><path id="path19581" class="cls-44" d="M821.54,444l.13-.63.35-.53.54-.36.63-.13.63.13.54.36.36.53.12.63-.12.64-.36.53-.54.36-.63.13-.63-.13-.54-.36-.35-.53Z" transform="translate(-718.57 -273.89)"/><path id="path19583" class="cls-43" d="M841.92,429.45a1.66,1.66,0,1,0-1.65,1.65A1.68,1.68,0,0,0,841.92,429.45Z" transform="translate(-718.57 -273.89)"/><path id="path19585" class="cls-44" d="M838.61,429.45l.13-.63.36-.54.53-.36.64-.12.63.12.53.36.36.54.13.63-.13.63-.36.54-.53.36-.63.12-.64-.12-.53-.36-.36-.54Z" transform="translate(-718.57 -273.89)"/><path id="path19587" class="cls-43" d="M879.42,374.4a1.66,1.66,0,1,0-1.66,1.65A1.68,1.68,0,0,0,879.42,374.4Z" transform="translate(-718.57 -273.89)"/><path id="path19589" class="cls-44" d="M876.11,374.4l.13-.63.36-.54.53-.35.63-.13.64.13.53.35.36.54.13.63-.13.63-.36.54-.53.36-.64.12-.63-.12-.53-.36-.36-.54Z" transform="translate(-718.57 -273.89)"/><path id="path19591" class="cls-43" d="M869,375.19a1.65,1.65,0,1,0-1.65,1.66A1.68,1.68,0,0,0,869,375.19Z" transform="translate(-718.57 -273.89)"/><path id="path19593" class="cls-44" d="M865.67,375.19l.12-.63.36-.53.53-.36.64-.13.63.13.53.36.36.53.13.63-.13.64-.36.53-.53.36-.63.13-.64-.13-.53-.36-.36-.53Z" transform="translate(-718.57 -273.89)"/><path id="path19597" class="cls-44" d="M851.06,411.75l.13-.63.35-.54.54-.36.63-.12.63.12.54.36.36.54.12.63-.12.63-.36.54-.54.35-.63.13-.63-.13-.54-.35-.35-.54Z" transform="translate(-718.57 -273.89)"/><path id="path19599" class="cls-43" d="M860.08,392a1.65,1.65,0,1,0-1.65,1.65A1.67,1.67,0,0,0,860.08,392Z" transform="translate(-718.57 -273.89)"/><path id="path19601" class="cls-44" d="M856.78,392l.13-.63.35-.54.54-.35.63-.13.63.13.54.35.36.54.12.63-.12.63-.36.54-.54.36-.63.12-.63-.12-.54-.36-.35-.54Z" transform="translate(-718.57 -273.89)"/><path id="path19603" class="cls-43" d="M826.14,392a1.65,1.65,0,1,0-1.65,1.65A1.68,1.68,0,0,0,826.14,392Z" transform="translate(-718.57 -273.89)"/><path id="path19605" class="cls-44" d="M822.84,392l.12-.63.36-.54.54-.35.63-.13.63.13.54.35.36.54.12.63-.12.63-.36.54-.54.36-.63.12-.63-.12-.54-.36-.36-.54Z" transform="translate(-718.57 -273.89)"/><path id="path19607" class="cls-43" d="M841.75,404.84a1.65,1.65,0,1,0-1.65,1.65A1.68,1.68,0,0,0,841.75,404.84Z" transform="translate(-718.57 -273.89)"/><path id="path19609" class="cls-44" d="M838.45,404.84l.12-.63.36-.54.54-.35.63-.13.63.13.54.35.35.54.13.63-.13.63-.35.54-.54.36-.63.12-.63-.12-.54-.36-.36-.54Z" transform="translate(-718.57 -273.89)"/><path id="path19611" class="cls-43" d="M809.59,399.1a1.65,1.65,0,1,0-3.3,0,1.65,1.65,0,1,0,3.3,0Z" transform="translate(-718.57 -273.89)"/><path id="path19613" class="cls-44" d="M806.29,399.1l.12-.63.36-.53.54-.36.63-.13.63.13.54.36.36.53.12.63-.12.64-.36.53-.54.36-.63.13-.63-.13-.54-.36-.36-.53Z" transform="translate(-718.57 -273.89)"/><path id="path19615" class="cls-43" d="M826.14,392a1.65,1.65,0,1,0-1.65,1.65A1.68,1.68,0,0,0,826.14,392Z" transform="translate(-718.57 -273.89)"/><path id="path19617" class="cls-44" d="M822.84,392l.12-.63.36-.54.54-.35.63-.13.63.13.54.35.36.54.12.63-.12.63-.36.54-.54.36-.63.12-.63-.12-.54-.36-.36-.54Z" transform="translate(-718.57 -273.89)"/><path id="path19619" class="cls-43" d="M841.92,429.45a1.66,1.66,0,1,0-1.65,1.65A1.68,1.68,0,0,0,841.92,429.45Z" transform="translate(-718.57 -273.89)"/><path id="path19621" class="cls-44" d="M838.61,429.45l.13-.63.36-.54.53-.36.64-.12.63.12.53.36.36.54.13.63-.13.63-.36.54-.53.36-.63.12-.64-.12-.53-.36-.36-.54Z" transform="translate(-718.57 -273.89)"/><path id="path19623" class="cls-43" d="M853.2,439.29a1.66,1.66,0,1,0-1.66,1.66A1.68,1.68,0,0,0,853.2,439.29Z" transform="translate(-718.57 -273.89)"/><path id="path19625" class="cls-44" d="M849.89,439.29l.13-.63.36-.53.53-.36.63-.13.64.13.53.36.36.53.13.63-.13.64-.36.53-.53.36-.64.13-.63-.13-.53-.36-.36-.53Z" transform="translate(-718.57 -273.89)"/><path id="path19627" class="cls-43" d="M874.38,453.64a1.65,1.65,0,0,0-3.3,0,1.65,1.65,0,0,0,3.3,0Z" transform="translate(-718.57 -273.89)"/><path id="path19629" class="cls-44" d="M871.08,453.64l.13-.63.35-.54.54-.36.63-.12.63.12.54.36.36.54.12.63-.12.63-.36.54-.54.35-.63.13-.63-.13-.54-.35-.35-.54Z" transform="translate(-718.57 -273.89)"/><path id="path19631" class="cls-43" d="M873.69,424.19a1.65,1.65,0,1,0-1.65,1.65A1.66,1.66,0,0,0,873.69,424.19Z" transform="translate(-718.57 -273.89)"/><path id="path19633" class="cls-44" d="M870.39,424.19l.12-.64.36-.53.54-.36.63-.12.63.12.54.36.36.53.12.64-.12.63-.36.53-.54.36-.63.13-.63-.13-.54-.36-.36-.53Z" transform="translate(-718.57 -273.89)"/><path id="path19635" class="cls-43" d="M853.2,439.29a1.66,1.66,0,1,0-1.66,1.66A1.68,1.68,0,0,0,853.2,439.29Z" transform="translate(-718.57 -273.89)"/><path id="path19637" class="cls-44" d="M849.89,439.29l.13-.63.36-.53.53-.36.63-.13.64.13.53.36.36.53.13.63-.13.64-.36.53-.53.36-.64.13-.63-.13-.53-.36-.36-.53Z" transform="translate(-718.57 -273.89)"/><path id="path19639" class="cls-43" d="M874.38,453.64a1.65,1.65,0,0,0-3.3,0,1.65,1.65,0,0,0,3.3,0Z" transform="translate(-718.57 -273.89)"/><path id="path19641" class="cls-44" d="M871.08,453.64l.13-.63.35-.54.54-.36.63-.12.63.12.54.36.36.54.12.63-.12.63-.36.54-.54.35-.63.13-.63-.13-.54-.35-.35-.54Z" transform="translate(-718.57 -273.89)"/><path id="path19643" class="cls-43" d="M824.84,444a1.65,1.65,0,1,0-1.65,1.66A1.66,1.66,0,0,0,824.84,444Z" transform="translate(-718.57 -273.89)"/><path id="path19645" class="cls-44" d="M821.54,444l.13-.63.35-.53.54-.36.63-.13.63.13.54.36.36.53.12.63-.12.64-.36.53-.54.36-.63.13-.63-.13-.54-.36-.35-.53Z" transform="translate(-718.57 -273.89)"/><path id="path19647" class="cls-43" d="M821,433.11a1.65,1.65,0,1,0-1.65,1.65A1.66,1.66,0,0,0,821,433.11Z" transform="translate(-718.57 -273.89)"/><path id="path19649" class="cls-44" d="M817.66,433.11l.13-.63.36-.54.53-.35.63-.13.64.13.53.35.36.54.13.63-.13.63-.36.54-.53.36-.64.12-.63-.12-.53-.36-.36-.54Z" transform="translate(-718.57 -273.89)"/><path id="path19651" class="cls-43" d="M809.59,399.1a1.65,1.65,0,1,0-3.3,0,1.65,1.65,0,1,0,3.3,0Z" transform="translate(-718.57 -273.89)"/><path id="path19653" class="cls-44" d="M806.29,399.1l.12-.63.36-.53.54-.36.63-.13.63.13.54.36.36.53.12.63-.12.64-.36.53-.54.36-.63.13-.63-.13-.54-.36-.36-.53Z" transform="translate(-718.57 -273.89)"/><path id="path19655" class="cls-43" d="M810.77,410.2a1.66,1.66,0,1,0-1.65,1.65A1.68,1.68,0,0,0,810.77,410.2Z" transform="translate(-718.57 -273.89)"/><path id="path19657" class="cls-44" d="M807.46,410.2l.13-.63L808,409l.53-.35.64-.13.63.13.53.35.36.54.13.63-.13.63-.36.54-.53.36-.63.12-.64-.12-.53-.36-.36-.54Z" transform="translate(-718.57 -273.89)"/><path id="path19659" class="cls-43" d="M806,350.75a1.66,1.66,0,1,0-1.65,1.65A1.68,1.68,0,0,0,806,350.75Z" transform="translate(-718.57 -273.89)"/><path id="path19661" class="cls-44" d="M802.65,350.75l.13-.64.36-.53.53-.36.64-.13.63.13.53.36.36.53.13.64-.13.63-.36.53-.53.36-.63.13-.64-.13-.53-.36-.36-.53Z" transform="translate(-718.57 -273.89)"/><path id="path19663" class="cls-43" d="M799.24,375.82a1.65,1.65,0,1,0-1.65,1.65A1.68,1.68,0,0,0,799.24,375.82Z" transform="translate(-718.57 -273.89)"/><path id="path19665" class="cls-44" d="M795.94,375.82l.12-.64.36-.53.54-.36.63-.12.63.12.54.36.36.53.12.64-.12.63-.36.53-.54.36-.63.13-.63-.13-.54-.36-.36-.53Z" transform="translate(-718.57 -273.89)"/><path id="path19667" class="cls-43" d="M862,432.48a1.66,1.66,0,1,0-1.66,1.65A1.68,1.68,0,0,0,862,432.48Z" transform="translate(-718.57 -273.89)"/><path id="path19669" class="cls-44" d="M858.71,432.48l.13-.63.36-.54.53-.35.63-.13.64.13.53.35.36.54.13.63-.13.63-.36.54L861,434l-.64.12-.63-.12-.53-.36-.36-.54Z" transform="translate(-718.57 -273.89)"/><path id="path19671" class="cls-43" d="M853.2,439.29a1.66,1.66,0,1,0-1.66,1.66A1.68,1.68,0,0,0,853.2,439.29Z" transform="translate(-718.57 -273.89)"/><path id="path19673" class="cls-44" d="M849.89,439.29l.13-.63.36-.53.53-.36.63-.13.64.13.53.36.36.53.13.63-.13.64-.36.53-.53.36-.64.13-.63-.13-.53-.36-.36-.53Z" transform="translate(-718.57 -273.89)"/><path id="path19675" class="cls-43" d="M869,375.19a1.65,1.65,0,1,0-1.65,1.66A1.68,1.68,0,0,0,869,375.19Z" transform="translate(-718.57 -273.89)"/><path id="path19677" class="cls-44" d="M865.67,375.19l.12-.63.36-.53.53-.36.64-.13.63.13.53.36.36.53.13.63-.13.64-.36.53-.53.36-.63.13-.64-.13-.53-.36-.36-.53Z" transform="translate(-718.57 -273.89)"/><path id="path19679" class="cls-43" d="M847.93,371.18a1.65,1.65,0,1,0-1.65,1.65A1.66,1.66,0,0,0,847.93,371.18Z" transform="translate(-718.57 -273.89)"/><path id="path19681" class="cls-44" d="M844.63,371.18l.12-.64.36-.53.54-.36.63-.13.63.13.54.36.35.53.13.64-.13.63-.35.53-.54.36-.63.13-.63-.13-.54-.36-.36-.53Z" transform="translate(-718.57 -273.89)"/><path id="path19683" class="cls-43" d="M825.76,353.13a1.65,1.65,0,1,0-1.65,1.65A1.67,1.67,0,0,0,825.76,353.13Z" transform="translate(-718.57 -273.89)"/><path id="path19685" class="cls-44" d="M822.46,353.13l.12-.63.36-.54.54-.36.63-.12.63.12.54.36.36.54.12.63-.12.63-.36.54-.54.35-.63.13-.63-.13-.54-.35-.36-.54Z" transform="translate(-718.57 -273.89)"/><path id="path19687" class="cls-43" d="M806,350.75a1.66,1.66,0,1,0-1.65,1.65A1.68,1.68,0,0,0,806,350.75Z" transform="translate(-718.57 -273.89)"/><path id="path19689" class="cls-44" d="M802.65,350.75l.13-.64.36-.53.53-.36.64-.13.63.13.53.36.36.53.13.64-.13.63-.36.53-.53.36-.63.13-.64-.13-.53-.36-.36-.53Z" transform="translate(-718.57 -273.89)"/><path id="path19691" class="cls-43" d="M821,433.11a1.65,1.65,0,1,0-1.65,1.65A1.66,1.66,0,0,0,821,433.11Z" transform="translate(-718.57 -273.89)"/><path id="path19693" class="cls-44" d="M817.66,433.11l.13-.63.36-.54.53-.35.63-.13.64.13.53.35.36.54.13.63-.13.63-.36.54-.53.36-.64.12-.63-.12-.53-.36-.36-.54Z" transform="translate(-718.57 -273.89)"/><path id="path19695" class="cls-43" d="M811.88,441.27a1.65,1.65,0,1,0-1.65,1.65A1.68,1.68,0,0,0,811.88,441.27Z" transform="translate(-718.57 -273.89)"/><path id="path19697" class="cls-44" d="M808.58,441.27l.12-.64.36-.53.54-.36.63-.13.63.13.54.36.36.53.12.64-.12.63-.36.53-.54.36-.63.13-.63-.13-.54-.36-.36-.53Z" transform="translate(-718.57 -273.89)"/><path id="path19699" class="cls-43" d="M806,350.75a1.66,1.66,0,1,0-1.65,1.65A1.68,1.68,0,0,0,806,350.75Z" transform="translate(-718.57 -273.89)"/><path id="path19701" class="cls-44" d="M802.65,350.75l.13-.64.36-.53.53-.36.64-.13.63.13.53.36.36.53.13.64-.13.63-.36.53-.53.36-.63.13-.64-.13-.53-.36-.36-.53Z" transform="translate(-718.57 -273.89)"/><path id="path19703" class="cls-43" d="M816.8,337.6a1.65,1.65,0,1,0-1.65,1.66A1.68,1.68,0,0,0,816.8,337.6Z" transform="translate(-718.57 -273.89)"/><path id="path19705" class="cls-44" d="M813.5,337.6l.12-.63.36-.53.53-.36.64-.13.63.13.53.36.36.53.13.63-.13.64-.36.53-.53.36-.63.13-.64-.13-.53-.36-.36-.53Z" transform="translate(-718.57 -273.89)"/><path id="path19707" class="cls-43" d="M818,368.68a1.65,1.65,0,1,0-1.65,1.65A1.66,1.66,0,0,0,818,368.68Z" transform="translate(-718.57 -273.89)"/><path id="path19709" class="cls-44" d="M814.65,368.68l.12-.63.36-.54.54-.36.63-.12.63.12.54.36.36.54.12.63-.12.63-.36.54-.54.35-.63.13-.63-.13-.54-.35-.36-.54Z" transform="translate(-718.57 -273.89)"/><path id="path19711" class="cls-43" d="M834.57,371a1.66,1.66,0,1,0-1.65,1.65A1.68,1.68,0,0,0,834.57,371Z" transform="translate(-718.57 -273.89)"/><path id="path19713" class="cls-44" d="M831.26,371l.13-.63.36-.54.53-.36.64-.12.63.12.53.36.36.54.13.63-.13.63-.36.54-.53.36-.63.12-.64-.12-.53-.36-.36-.54Z" transform="translate(-718.57 -273.89)"/><path id="path19723" class="cls-43" d="M841.67,392a1.66,1.66,0,1,0-1.65,1.65A1.68,1.68,0,0,0,841.67,392Z" transform="translate(-718.57 -273.89)"/><path id="path19725" class="cls-44" d="M838.36,392l.13-.63.36-.54.53-.35.64-.13.63.13.53.35.36.54.13.63-.13.63-.36.54-.53.36-.63.12-.64-.12-.53-.36-.36-.54Z" transform="translate(-718.57 -273.89)"/><path id="path19727" class="cls-43" d="M841.75,404.84a1.65,1.65,0,1,0-1.65,1.65A1.68,1.68,0,0,0,841.75,404.84Z" transform="translate(-718.57 -273.89)"/><path id="path19729" class="cls-44" d="M838.45,404.84l.12-.63.36-.54.54-.35.63-.13.63.13.54.35.35.54.13.63-.13.63-.35.54-.54.36-.63.12-.63-.12-.54-.36-.36-.54Z" transform="translate(-718.57 -273.89)"/><path id="path19733" class="cls-44" d="M851.06,411.75l.13-.63.35-.54.54-.36.63-.12.63.12.54.36.36.54.12.63-.12.63-.36.54-.54.35-.63.13-.63-.13-.54-.35-.35-.54Z" transform="translate(-718.57 -273.89)"/><path id="path19735" class="cls-43" d="M830.1,413a1.65,1.65,0,1,0-1.65,1.65A1.67,1.67,0,0,0,830.1,413Z" transform="translate(-718.57 -273.89)"/><path id="path19737" class="cls-44" d="M826.8,413l.13-.63.35-.54.54-.35.63-.13.63.13.54.35.36.54.12.63-.12.63-.36.54-.54.36-.63.12-.63-.12-.54-.36-.35-.54Z" transform="translate(-718.57 -273.89)"/><path id="path19741" class="cls-44" d="M851.06,411.75l.13-.63.35-.54.54-.36.63-.12.63.12.54.36.36.54.12.63-.12.63-.36.54-.54.35-.63.13-.63-.13-.54-.35-.35-.54Z" transform="translate(-718.57 -273.89)"/><path id="path19743" class="cls-43" d="M844.91,421.78a1.66,1.66,0,1,0-1.66,1.65A1.67,1.67,0,0,0,844.91,421.78Z" transform="translate(-718.57 -273.89)"/><path id="path19745" class="cls-44" d="M841.6,421.78l.13-.63.36-.54.53-.36.63-.12.64.12.53.36.36.54.13.63-.13.63-.36.54-.53.35-.64.13-.63-.13-.53-.35-.36-.54Z" transform="translate(-718.57 -273.89)"/><path id="path19747" class="cls-43" d="M870.24,392a1.65,1.65,0,1,0-1.65,1.65A1.67,1.67,0,0,0,870.24,392Z" transform="translate(-718.57 -273.89)"/><path id="path19749" class="cls-44" d="M866.94,392l.13-.63.35-.54.54-.35.63-.13.63.13.54.35.36.54.12.63-.12.63-.36.54-.54.36-.63.12-.63-.12-.54-.36-.35-.54Z" transform="translate(-718.57 -273.89)"/><path id="path19751" class="cls-43" d="M868.71,404.14a1.65,1.65,0,1,0-1.65,1.66A1.67,1.67,0,0,0,868.71,404.14Z" transform="translate(-718.57 -273.89)"/><path id="path19753" class="cls-44" d="M865.41,404.14l.13-.63.35-.53.54-.36.63-.13.63.13.54.36.36.53.12.63-.12.64-.36.53-.54.36-.63.13-.63-.13-.54-.36-.35-.53Z" transform="translate(-718.57 -273.89)"/><path id="path19755" class="cls-43" d="M841.35,344.18a1.65,1.65,0,1,0-1.65,1.66A1.67,1.67,0,0,0,841.35,344.18Z" transform="translate(-718.57 -273.89)"/><path id="path19757" class="cls-44" d="M838.05,344.18l.13-.63.35-.53.54-.36.63-.13.63.13.54.36.36.53.12.63-.12.64-.36.53-.54.36-.63.12-.63-.12-.54-.36-.35-.53Z" transform="translate(-718.57 -273.89)"/><path id="path19759" class="cls-43" d="M860.87,355.48a1.66,1.66,0,1,0-1.65,1.66A1.68,1.68,0,0,0,860.87,355.48Z" transform="translate(-718.57 -273.89)"/><path id="path19761" class="cls-44" d="M857.56,355.48l.13-.63.36-.53.53-.36.64-.13.63.13.53.36.36.53.13.63-.13.64-.36.53-.53.36-.63.13-.64-.13-.53-.36-.36-.53Z" transform="translate(-718.57 -273.89)"/><path id="path19763" class="cls-43" d="M875.21,349.79a1.65,1.65,0,1,0-1.65,1.65A1.66,1.66,0,0,0,875.21,349.79Z" transform="translate(-718.57 -273.89)"/><path id="path19765" class="cls-44" d="M871.91,349.79l.12-.63.36-.54.54-.36.63-.12.63.12.54.36.35.54.13.63-.13.63-.35.54-.54.35-.63.13-.63-.13-.54-.35-.36-.54Z" transform="translate(-718.57 -273.89)"/><path id="path19767" class="cls-43" d="M869,375.19a1.65,1.65,0,1,0-1.65,1.66A1.68,1.68,0,0,0,869,375.19Z" transform="translate(-718.57 -273.89)"/><path id="path19769" class="cls-44" d="M865.67,375.19l.12-.63.36-.53.53-.36.64-.13.63.13.53.36.36.53.13.63-.13.64-.36.53-.53.36-.63.13-.64-.13-.53-.36-.36-.53Z" transform="translate(-718.57 -273.89)"/><path id="path19771" class="cls-43" d="M810.77,410.2a1.66,1.66,0,1,0-1.65,1.65A1.68,1.68,0,0,0,810.77,410.2Z" transform="translate(-718.57 -273.89)"/><path id="path19773" class="cls-44" d="M807.46,410.2l.13-.63L808,409l.53-.35.64-.13.63.13.53.35.36.54.13.63-.13.63-.36.54-.53.36-.63.12-.64-.12-.53-.36-.36-.54Z" transform="translate(-718.57 -273.89)"/><path id="path19775" class="cls-43" d="M830.1,413a1.65,1.65,0,1,0-1.65,1.65A1.67,1.67,0,0,0,830.1,413Z" transform="translate(-718.57 -273.89)"/><path id="path19777" class="cls-44" d="M826.8,413l.13-.63.35-.54.54-.35.63-.13.63.13.54.35.36.54.12.63-.12.63-.36.54-.54.36-.63.12-.63-.12-.54-.36-.35-.54Z" transform="translate(-718.57 -273.89)"/><path id="path19779" class="cls-43" d="M873.69,424.19a1.65,1.65,0,1,0-1.65,1.65A1.66,1.66,0,0,0,873.69,424.19Z" transform="translate(-718.57 -273.89)"/><path id="path19781" class="cls-44" d="M870.39,424.19l.12-.64.36-.53.54-.36.63-.12.63.12.54.36.36.53.12.64-.12.63-.36.53-.54.36-.63.13-.63-.13-.54-.36-.36-.53Z" transform="translate(-718.57 -273.89)"/><path id="path19783" class="cls-43" d="M862,432.48a1.66,1.66,0,1,0-1.66,1.65A1.68,1.68,0,0,0,862,432.48Z" transform="translate(-718.57 -273.89)"/><path id="path19785" class="cls-44" d="M858.71,432.48l.13-.63.36-.54.53-.35.63-.13.64.13.53.35.36.54.13.63-.13.63-.36.54L861,434l-.64.12-.63-.12-.53-.36-.36-.54Z" transform="translate(-718.57 -273.89)"/><path id="path19787" class="cls-43" d="M834.57,371a1.66,1.66,0,1,0-1.65,1.65A1.68,1.68,0,0,0,834.57,371Z" transform="translate(-718.57 -273.89)"/><path id="path19789" class="cls-44" d="M831.26,371l.13-.63.36-.54.53-.36.64-.12.63.12.53.36.36.54.13.63-.13.63-.36.54-.53.36-.63.12-.64-.12-.53-.36-.36-.54Z" transform="translate(-718.57 -273.89)"/><path id="path19791" class="cls-43" d="M841.35,344.18a1.65,1.65,0,1,0-1.65,1.66A1.67,1.67,0,0,0,841.35,344.18Z" transform="translate(-718.57 -273.89)"/><path id="path19793" class="cls-44" d="M838.05,344.18l.13-.63.35-.53.54-.36.63-.13.63.13.54.36.36.53.12.63-.12.64-.36.53-.54.36-.63.12-.63-.12-.54-.36-.35-.53Z" transform="translate(-718.57 -273.89)"/><path id="path19795" class="cls-43" d="M841.92,429.45a1.66,1.66,0,1,0-1.65,1.65A1.68,1.68,0,0,0,841.92,429.45Z" transform="translate(-718.57 -273.89)"/><path id="path19797" class="cls-44" d="M838.61,429.45l.13-.63.36-.54.53-.36.64-.12.63.12.53.36.36.54.13.63-.13.63-.36.54-.53.36-.63.12-.64-.12-.53-.36-.36-.54Z" transform="translate(-718.57 -273.89)"/><path id="path19799" class="cls-43" d="M821,433.11a1.65,1.65,0,1,0-1.65,1.65A1.66,1.66,0,0,0,821,433.11Z" transform="translate(-718.57 -273.89)"/><path id="path19801" class="cls-44" d="M817.66,433.11l.13-.63.36-.54.53-.35.63-.13.64.13.53.35.36.54.13.63-.13.63-.36.54-.53.36-.64.12-.63-.12-.53-.36-.36-.54Z" transform="translate(-718.57 -273.89)"/><path id="path19803" class="cls-43" d="M821,433.11a1.65,1.65,0,1,0-1.65,1.65A1.66,1.66,0,0,0,821,433.11Z" transform="translate(-718.57 -273.89)"/><path id="path19805" class="cls-44" d="M817.66,433.11l.13-.63.36-.54.53-.35.63-.13.64.13.53.35.36.54.13.63-.13.63-.36.54-.53.36-.64.12-.63-.12-.53-.36-.36-.54Z" transform="translate(-718.57 -273.89)"/><path id="path19807" class="cls-43" d="M809.35,422.5a1.65,1.65,0,1,0-1.65,1.65A1.68,1.68,0,0,0,809.35,422.5Z" transform="translate(-718.57 -273.89)"/><path id="path19809" class="cls-44" d="M806.05,422.5l.12-.63.36-.54.54-.36.63-.12.63.12.54.36.36.54.12.63-.12.63-.36.54-.54.36-.63.12-.63-.12-.54-.36-.36-.54Z" transform="translate(-718.57 -273.89)"/><path id="path19811" class="cls-43" d="M862,432.48a1.66,1.66,0,1,0-1.66,1.65A1.68,1.68,0,0,0,862,432.48Z" transform="translate(-718.57 -273.89)"/><path id="path19813" class="cls-44" d="M858.71,432.48l.13-.63.36-.54.53-.35.63-.13.64.13.53.35.36.54.13.63-.13.63-.36.54L861,434l-.64.12-.63-.12-.53-.36-.36-.54Z" transform="translate(-718.57 -273.89)"/><path id="path19817" class="cls-44" d="M851.06,411.75l.13-.63.35-.54.54-.36.63-.12.63.12.54.36.36.54.12.63-.12.63-.36.54-.54.35-.63.13-.63-.13-.54-.35-.35-.54Z" transform="translate(-718.57 -273.89)"/><path id="path19819" class="cls-43" d="M809.35,422.5a1.65,1.65,0,1,0-1.65,1.65A1.68,1.68,0,0,0,809.35,422.5Z" transform="translate(-718.57 -273.89)"/><path id="path19821" class="cls-44" d="M806.05,422.5l.12-.63.36-.54.54-.36.63-.12.63.12.54.36.36.54.12.63-.12.63-.36.54-.54.36-.63.12-.63-.12-.54-.36-.36-.54Z" transform="translate(-718.57 -273.89)"/><path id="path19823" class="cls-43" d="M830.1,413a1.65,1.65,0,1,0-1.65,1.65A1.67,1.67,0,0,0,830.1,413Z" transform="translate(-718.57 -273.89)"/><path id="path19825" class="cls-44" d="M826.8,413l.13-.63.35-.54.54-.35.63-.13.63.13.54.35.36.54.12.63-.12.63-.36.54-.54.36-.63.12-.63-.12-.54-.36-.35-.54Z" transform="translate(-718.57 -273.89)"/><path id="path19827" class="cls-43" d="M841.75,404.84a1.65,1.65,0,1,0-1.65,1.65A1.68,1.68,0,0,0,841.75,404.84Z" transform="translate(-718.57 -273.89)"/><path id="path19829" class="cls-44" d="M838.45,404.84l.12-.63.36-.54.54-.35.63-.13.63.13.54.35.35.54.13.63-.13.63-.35.54-.54.36-.63.12-.63-.12-.54-.36-.36-.54Z" transform="translate(-718.57 -273.89)"/><path id="path19833" class="cls-44" d="M851.06,411.75l.13-.63.35-.54.54-.36.63-.12.63.12.54.36.36.54.12.63-.12.63-.36.54-.54.35-.63.13-.63-.13-.54-.35-.35-.54Z" transform="translate(-718.57 -273.89)"/><path id="path19835" class="cls-43" d="M806,350.75a1.66,1.66,0,1,0-1.65,1.65A1.68,1.68,0,0,0,806,350.75Z" transform="translate(-718.57 -273.89)"/><path id="path19837" class="cls-44" d="M802.65,350.75l.13-.64.36-.53.53-.36.64-.13.63.13.53.36.36.53.13.64-.13.63-.36.53-.53.36-.63.13-.64-.13-.53-.36-.36-.53Z" transform="translate(-718.57 -273.89)"/><path id="path19839" class="cls-43" d="M818,368.68a1.65,1.65,0,1,0-1.65,1.65A1.66,1.66,0,0,0,818,368.68Z" transform="translate(-718.57 -273.89)"/><path id="path19841" class="cls-44" d="M814.65,368.68l.12-.63.36-.54.54-.36.63-.12.63.12.54.36.36.54.12.63-.12.63-.36.54-.54.35-.63.13-.63-.13-.54-.35-.36-.54Z" transform="translate(-718.57 -273.89)"/><path id="path19843" class="cls-43" d="M818,368.68a1.65,1.65,0,1,0-1.65,1.65A1.66,1.66,0,0,0,818,368.68Z" transform="translate(-718.57 -273.89)"/><path id="path19845" class="cls-44" d="M814.65,368.68l.12-.63.36-.54.54-.36.63-.12.63.12.54.36.36.54.12.63-.12.63-.36.54-.54.35-.63.13-.63-.13-.54-.35-.36-.54Z" transform="translate(-718.57 -273.89)"/><path id="path19847" class="cls-43" d="M806,392a1.65,1.65,0,1,0-3.3,0,1.65,1.65,0,1,0,3.3,0Z" transform="translate(-718.57 -273.89)"/><path id="path19849" class="cls-44" d="M802.68,392l.12-.63.36-.54.54-.35.63-.13.63.13.54.35.35.54.13.63-.13.63-.35.54-.54.36-.63.12-.63-.12-.54-.36-.36-.54Z" transform="translate(-718.57 -273.89)"/></g></g></g></svg>